<svg version="1.2" xmlns="http://www.w3.org/2000/svg" viewBox="0 0 500 500" width="500" height="500">
	<defs>
		<radialGradient id="g1" cx="0" cy="0" r="1" gradientUnits="userSpaceOnUse" gradientTransform="matrix(16.202,21.726,-21.726,16.202,222.1,110.466)">
			<stop offset="0" stop-color="#733b59" stop-opacity=".6"/>
			<stop offset=".816" stop-color="#733b59" stop-opacity="0"/>
		</radialGradient>
		<radialGradient id="g2" cx="0" cy="0" r="1" gradientUnits="userSpaceOnUse" gradientTransform="matrix(45.936,40.888,-40.888,45.936,290.144,239.612)">
			<stop offset="0" stop-color="#733b59" stop-opacity=".6"/>
			<stop offset=".816" stop-color="#733b59" stop-opacity="0"/>
		</radialGradient>
		<radialGradient id="g3" cx="0" cy="0" r="1" gradientUnits="userSpaceOnUse" gradientTransform="matrix(23.223,13.68,-13.68,23.223,249.441,228.71)">
			<stop offset="0" stop-color="#733b59" stop-opacity=".6"/>
			<stop offset=".816" stop-color="#733b59" stop-opacity="0"/>
		</radialGradient>
	</defs>
	<style>
		tspan { white-space:pre } 
		.s0 { fill: #3a2641 } 
		.t1 { font-size: 24px;fill: #ff0000;font-weight: 300;font-family: "Quicksand-Bold", "Quicksand" } 
		.s2 { fill: #cc755a } 
		.s3 { fill: #d7ac71 } 
		.s4 { fill: #e5d2a7 } 
		.s5 { fill: #52395b } 
		.s6 { fill: #eeddc6 } 
		.s7 { opacity: .33;fill: #733b59 } 
		.s8 { fill: url(#g1) } 
		.s9 { fill: #e29845 } 
		.s10 { fill: #733b59 } 
		.s11 { fill: #a4eaff } 
		.s12 { opacity: .6;mix-blend-mode: multiply;fill: #733b59 } 
		.s13 { fill: #ffffff } 
		.s14 { fill: #54213e } 
		.s15 { fill: url(#g2) } 
		.s16 { fill: url(#g3) } 
		.s17 { fill: #eeb5c6 } 
		.s18 { mix-blend-mode: multiply;fill: #eeb5c6 } 
		.s19 { fill: #8e8990 } 
		.t20 { font-size: 63px;fill: #52395b;font-weight: 300;font-family: "Quicksand-Bold", "Quicksand" } 
		.t21 { font-size: 62px;fill: #52395b;font-weight: 300;font-family: "Quicksand-Bold", "Quicksand" } 
		.s22 { fill: none;stroke: #8e8990;stroke-miterlimit:10;stroke-width: 2 } 
	</style>
	<g id="OBJECTS">
		<g id="&lt;Group&gt;">
			<g id="&lt;Group&gt;" style="opacity: .12;mix-blend-mode: multiply">
				<path id="&lt;Path&gt;" class="s0" d="m60.18 311.39c1.09 0 39.28 19.28 39.28 19.28h372.15l-29.92-31.71c0 0-381.89 12.43-381.51 12.43z"/>
			</g>
			<g id="&lt;Group&gt;" style="opacity: .12;mix-blend-mode: multiply">
				<path id="&lt;Path&gt;" class="s0" d="m57.34 394.87c1.08 0 39.27 19.28 39.27 19.28h372.15l-29.92-31.71c0 0-381.89 12.43-381.5 12.43z"/>
			</g>
			<g id="&lt;Group&gt;" style="opacity: .29;mix-blend-mode: multiply">
				<path id="&lt;Path&gt;" class="s0" d="m384.43 155.83c5.72-3.82 14.44-4.86 22.53-4.79 10.8 0.08 20.49 2.12 20.49 2.12 0-14.54-11.03-23.56-19.99-28.49q-0.71-0.39-1.39-0.75-1.38-0.71-2.65-1.29c-4.2-1.93-7.25-2.79-7.25-2.79q0 0-0.06-0.03-0.03-0.02-0.09-0.06-0.03-0.01-0.07-0.03-0.08-0.04-0.19-0.1 0 0 0 0-0.01 0-0.01 0-0.03-0.02-0.06-0.03-0.13-0.06-0.29-0.14-0.04-0.02-0.07-0.03-0.18-0.09-0.4-0.18 0 0 0 0-0.02-0.01-0.05-0.02-0.23-0.1-0.5-0.21-0.01 0-0.01 0-0.02-0.01-0.04-0.02-0.28-0.11-0.61-0.23-0.01-0.01-0.01-0.01-0.01 0-0.01 0 0 0 0 0c-6.27-2.31-23.84-5.93-44.46 14.69q-1.21 1.21-2.29 2.39-1.08 1.18-2.02 2.32-1.43 1.71-2.58 3.35-1.15 1.64-2.05 3.2-0.9 1.55-1.57 3.03-0.67 1.48-1.14 2.88-0.31 0.93-0.53 1.83-0.45 1.79-0.6 3.44-0.08 0.83-0.09 1.61-0.01 1.58 0.2 3 0.1 0.72 0.25 1.39 0.23 1.01 0.55 1.94 0.31 0.93 0.7 1.77 0.38 0.84 0.81 1.6 0.43 0.76 0.89 1.42 0.3 0.45 0.61 0.85 0.61 0.82 1.21 1.47 0.29 0.33 0.57 0.61 0.57 0.58 1.03 0.99 0.23 0.21 0.43 0.37 0.4 0.33 0.63 0.5 0.11 0.08 0.17 0.12 0.06 0.05 0.06 0.05l-9.52-4.08q0.68 1.15 1.36 2.2 0.23 0.34 0.45 0.66 0.46 0.7 0.92 1.36 0.27 0.37 0.53 0.73 0.42 0.57 0.84 1.12 0.28 0.35 0.56 0.69 0.4 0.51 0.81 0.99 0.28 0.33 0.57 0.65 0.4 0.46 0.8 0.89 0.29 0.3 0.58 0.58 0.4 0.42 0.81 0.82 0.28 0.26 0.56 0.52 0.42 0.38 0.83 0.75 0.28 0.23 0.55 0.45 0.43 0.37 0.87 0.71 0.25 0.19 0.51 0.39 0.46 0.34 0.92 0.67 0.23 0.16 0.47 0.32 0.49 0.33 0.99 0.65 0.2 0.12 0.4 0.24 0.55 0.34 1.1 0.65 0.15 0.09 0.3 0.17 0.63 0.35 1.27 0.68 0.06 0.04 0.13 0.07c9.13 4.65 19.29 5.99 32.42 16.75q1.71 1.39 3.5 3.01c23.8 21.77 25.16 54.41 15.64 65.97-7.4 8.98-23 3.19-29.59 0.16q-0.32-0.14-0.6-0.28-0.05-0.02-0.1-0.04-0.27-0.13-0.52-0.25-0.05-0.03-0.09-0.05-0.25-0.12-0.46-0.23-0.03-0.01-0.06-0.03-0.22-0.11-0.39-0.2-0.03-0.01-0.05-0.02-0.17-0.09-0.31-0.16-0.02-0.01-0.04-0.02-0.13-0.07-0.22-0.12-0.02-0.01-0.03-0.02-0.18-0.09-0.19-0.1l6.12-6.12c-4.22 0.94-11.05 3.83-14.86 5.52 0.66-11.87-0.66-26.37-7.58-40.2l6.12 7.48c0 0-4.76-21.09-21.08-27.89-13.9-5.79-36.18-9.62-52.56-31.2q-0.96-1.25-1.88-2.59-0.21-0.3-0.41-0.6-0.12-0.17-0.23-0.34-0.5-0.74-0.99-1.51-0.23-0.37-0.46-0.75-0.25-0.39-0.5-0.8-0.25-0.41-0.5-0.84-0.67-1.12-1.31-2.3-0.05-0.11-0.11-0.21-0.1-0.19-0.2-0.38-0.71-1.31-1.38-2.69c0 0 3.21-1.22 7.24-3.16q0.08-0.04 0.16-0.08 0.36-0.17 0.73-0.36 0 0 0.01 0 0 0 0 0 0.13-0.06 0.26-0.13 0 0 0 0 0.01 0 0.01 0 0.32-0.16 0.65-0.33 0.15-0.08 0.3-0.15 0.34-0.18 0.68-0.36 0.14-0.07 0.28-0.14 0.47-0.25 0.94-0.5 0.06-0.04 0.12-0.07 0.41-0.22 0.82-0.45 0.17-0.1 0.34-0.2 0.04-0.02 0.08-0.04c3.55 0.98 6.77 1.92 9.55 2.78 3.47 1.06 6.27 1.96 8.19 2.62 1.93 0.64 2.99 1 2.99 1 0 0-1.05-0.4-2.95-1.12-1.9-0.73-4.66-1.73-8.11-2.89-2.6-0.89-5.6-1.85-8.91-2.84q0.07-0.04 0.14-0.08 0.28-0.16 0.56-0.33 0.19-0.12 0.38-0.23 0 0 0-0.01 0 0 0 0 0.29-0.17 0.57-0.35 0 0 0 0 0-0.01 0.01-0.01 0.16-0.1 0.33-0.21 0.42-0.27 0.83-0.55 0 0 0 0 0.08-0.05 0.16-0.11 0.37-0.25 0.73-0.51 0.15-0.11 0.3-0.22 0 0 0 0 0 0 0 0 0.27-0.2 0.53-0.39 0 0 0 0 0-0.01 0-0.01 0.16-0.11 0.31-0.23 0.25-0.2 0.49-0.39 0.15-0.12 0.29-0.24 0.25-0.21 0.49-0.43 0.12-0.1 0.23-0.2 0.35-0.32 0.67-0.64l5.4-1.08c2.47 0.62 4.83 1.15 7 1.84 1.13 0.34 2.24 0.64 3.29 0.98q1.56 0.54 2.99 1.04c1.93 0.62 3.6 1.36 5.09 1.95q1.12 0.45 2.08 0.85 0.93 0.44 1.7 0.81c2.05 0.96 3.18 1.49 3.18 1.49 0 0-1.11-0.57-3.13-1.61q-0.75-0.39-1.67-0.86-0.94-0.43-2.05-0.92c-1.48-0.63-3.14-1.42-5.05-2.1q-1.43-0.53-2.99-1.11c-1.04-0.37-2.15-0.69-3.28-1.06-1.85-0.63-3.84-1.14-5.92-1.68l-5.96-3.98 13.6-1.36-14.79-9.86-1.53-1.02h4.54 4.3q0-0.01-0.06-0.06-0.01-0.01-0.03-0.02-0.24-0.23-1.01-1c-0.55-0.54-1.28-1.26-2.12-2.12q1.98-0.07 3.88-0.08c5.88-0.01 11.17 0.38 15.57 1.03 4.41 0.63 7.93 1.43 10.33 2.1 1.21 0.3 2.12 0.62 2.76 0.8q0.95 0.28 0.95 0.28 0 0-0.94-0.32c-0.63-0.19-1.53-0.55-2.74-0.89-2.38-0.74-5.89-1.64-10.3-2.38-4.4-0.75-9.72-1.24-15.63-1.31q-2.24-0.02-4.59 0.04c-4.73-4.87-12.15-13.02-13.07-17.15-0.45-2.02-0.82-4.77-1.42-7.65 13.06-26.83-23.79-57.97-23.79-57.97l0.28 2.98 1.78 19.01-4.12-4.81q0.19 1.17 0.23 2.57c0.18 5.61-1.29 13.63-2.42 18.89q-1.9-0.33-3.95-0.62-0.03-0.15-0.14-0.29c-0.23-0.31-0.65-0.4-1.03-0.47 0.42-0.5 0.71-1.15 0.33-1.63-0.23-0.31-0.65-0.4-1.03-0.47q-0.71-0.11-1.42-0.21-1.19-0.18-2.39-0.31-0.1-0.01-0.19-0.02-1.1-0.12-2.21-0.19-0.38-0.03-0.77-0.05-0.85-0.05-1.7-0.08-1.3-0.04-2.59-0.01-0.45 0-0.91 0.02-0.14 0.01-0.29 0.02-0.31 0.02-0.63 0.04-0.18 0.01-0.36 0.03-0.28 0.02-0.56 0.05-0.2 0.02-0.39 0.05-0.27 0.03-0.53 0.07-0.21 0.03-0.41 0.06-0.26 0.04-0.51 0.09-0.21 0.04-0.42 0.08-0.24 0.05-0.48 0.11-0.21 0.05-0.42 0.1-0.24 0.06-0.47 0.13-0.21 0.06-0.42 0.12-0.23 0.07-0.45 0.15-0.21 0.07-0.41 0.15-0.22 0.08-0.43 0.17-0.2 0.08-0.4 0.17-0.21 0.1-0.41 0.2-0.19 0.09-0.38 0.19-0.2 0.11-0.4 0.23-0.18 0.11-0.36 0.22-0.19 0.13-0.37 0.26-0.08 0.06-0.16 0.11-0.37 0.02-0.75 0.05l1.1-1.75q-0.41 0.23-0.82 0.46-0.18 0.1-0.35 0.21 0 0 0 0-1.05 0.6-2.05 1.27-0.83 0.08-1.67 0.17c-8.01-17.36-30.93-29.05-30.93-29.05l0.86 2.57 4.34 12.95 1.17 3.49-4.64-3.4q0.44 1.06 0.78 2.39 0.17 0.67 0.32 1.39 0.04 0.16 0.07 0.31 0.15 0.77 0.28 1.57 0.03 0.15 0.05 0.29c0.34 2.17 0.57 4.54 0.73 6.82q0.03 0.54 0.07 1.07 0.05 1 0.09 1.96 0.08 1.88 0.11 3.49l-2.1 0.48 2.12 1.33c0.02 2.01-0.01 3.31-0.01 3.31q0 0 0.05 0.11 0.02 0.03 0.04 0.08 0.01 0.02 0.02 0.05 0.02 0.04 0.05 0.09 0.02 0.04 0.05 0.1 0.02 0.03 0.04 0.08 0.03 0.07 0.07 0.15 0.03 0.04 0.05 0.09 0.04 0.09 0.09 0.19 0.03 0.05 0.06 0.1 0.05 0.1 0.11 0.22 0.02 0.05 0.05 0.1 0.07 0.13 0.14 0.26 0.02 0.06 0.06 0.12 0.06 0.13 0.14 0.27 0.04 0.07 0.08 0.14 0.07 0.14 0.15 0.29 0.04 0.08 0.08 0.16 0.08 0.14 0.17 0.3 0.05 0.09 0.09 0.18 0.07 0.13 0.15 0.26c-0.59 1.46-1.37 3.21-2.37 5.15q-2.55 3.35-4.25 7.13-0.03 0.04-0.05 0.07c-2.3 0.79-4.23 2.07-5.31 2.87-2.93-1.88-4.94-3.17-4.94-3.17 0 0 0.79 4.72 2.76 9.31-2.12 2.11-4.51 4.17-7.19 6.09q-0.67 0.49-1.36 0.96-0.76 0.52-1.54 1.02l4.76 0.68c0 0-3.17 2.3-6.51 4.48q-4.35-0.79-9.14-1.36c-4.64-0.53-9.08-0.8-13.11-0.91-4.04-0.09-7.68-0.04-10.73 0.12-1.53 0.05-2.9 0.18-4.11 0.26q-1.82 0.12-3.1 0.27c-1.7 0.17-2.63 0.27-2.63 0.27 0 0 0.94-0.05 2.64-0.15q1.28-0.08 3.1-0.13c1.21-0.04 2.59-0.11 4.11-0.11 3.05-0.05 6.67 0 10.69 0.16 4.02 0.19 8.43 0.51 13.04 1.03q4.32 0.51 8.28 1.16c-1.47 0.94-2.92 1.8-4.09 2.39l10.88 4.76q-1.4 0.7-2.35 1.17-2.2 0.15-4.57 0.34c-4.68 0.44-9.81 1.12-15.14 2.12-5.32 1.02-10.34 2.28-14.85 3.59-2.25 0.69-4.39 1.32-6.36 2.02-1.98 0.65-3.8 1.34-5.46 1.97-1.67 0.61-3.14 1.25-4.45 1.78q-1.96 0.8-3.32 1.43c-1.8 0.82-2.8 1.27-2.8 1.27 0 0 1.01-0.41 2.85-1.15q1.38-0.58 3.37-1.31c1.32-0.49 2.81-1.08 4.49-1.63 1.67-0.59 3.51-1.22 5.5-1.83 1.98-0.65 4.12-1.24 6.37-1.89 4.51-1.22 9.52-2.42 14.82-3.45 5.3-0.99 10.4-1.71 15.05-2.23q1.56-0.15 3.04-0.3c-1.62 0.82-1.63 0.82-1.63 0.82 0 0 3.17 2.15 7.38 4.98-3.83 0.89-7.21 1.92-9.73 2.77-2.98 1.01-4.78 1.75-4.78 1.75 0 0 1.88-0.52 4.9-1.36 2.73-0.73 6.42-1.64 10.54-2.54 2.2 1.47 4.63 3.09 7.02 4.66q0 0 0 0 1.52 1.01 2.99 1.96 0.05 0.04 0.1 0.07 1.41 0.92 2.72 1.76 0.11 0.07 0.21 0.14 0.54 0.34 1.05 0.67 0.1 0.06 0.2 0.12 0 0.01 0 0.01 0 0 0 0 0.58 0.37 1.11 0.7 0.08 0.05 0.16 0.1 0 0 0 0 0 0 0 0 0.44 0.28 0.85 0.53 0.12 0.07 0.24 0.15 0 0 0 0 0 0 0 0 0.47 0.29 0.88 0.53 0.96 0.58 1.91 1.11 0.16 0.09 0.32 0.18 0.95 0.53 1.87 1.01 0.08 0.05 0.17 0.09 0 0 0 0c1.68 0.88 3.28 1.65 4.75 2.29q0.05 0.02 0.09 0.04 0.02 0 0.03 0.01 0 0 0 0 0.39 0.17 0.77 0.33 0.03 0.01 0.06 0.02 0.01 0.01 0.02 0.01 0.02 0.01 0.04 0.02 0.39 0.16 0.78 0.31 0 0 0 0 0 0.01 0 0.01 0.01 0 0.02 0 0.76 0.3 1.43 0.54 0.07 0.02 0.13 0.05 0 0 0 0 1.09 0.37 1.91 0.57 0.11 0.03 0.21 0.05 0.12 0.03 0.23 0.05 0.18 0.04 0.34 0.06 0.32 0.05 0.57 0.06 0.09 0 0.12 0.08 0.01 0.03 0.01 0.06 0.02 0.05 0.01 0.12-0.01 0.06-0.03 0.14-0.01 0.06-0.04 0.14-0.03 0.1-0.08 0.21 0 0 0 0-0.01 0.03-0.02 0.05-0.2 0.49-0.63 1.24 0 0 0 0-0.16 0.27-0.34 0.58c-0.97 1.6-2.49 3.8-4.31 6.26q-0.06 0.08-0.11 0.15-0.27 0.37-0.55 0.73-0.11 0.16-0.23 0.31-0.22 0.29-0.44 0.59-0.16 0.21-0.32 0.42-0.18 0.24-0.37 0.48-0.2 0.26-0.41 0.52-0.14 0.19-0.28 0.37-0.25 0.32-0.49 0.63-0.11 0.13-0.21 0.26-0.28 0.36-0.57 0.73-0.07 0.07-0.13 0.15c-2.2 2.76-4.54 5.53-6.73 7.93-2.73 2.97-5.23 5.36-6.98 6.41l11.56-0.68-3.74 2.44 4.42 0.96-4.08 11.56 7.65-0.51q0.15 0.58 0.31 1.15c-1.54 0.5-3.13 1.48-4.73 3.07 0 0-10.95 12.77-20.2 6.09q-0.39-0.28-0.77-0.6-0.4-0.34-0.8-0.72-0.33-0.35-0.64-0.74-0.2-0.25-0.39-0.5-0.67-0.92-1.2-2.01c-5.89-12.2-0.36-39.88-18.85-49.12-10.2-5.1-18.53-1.87-23.38 3.06q-0.03 0.03-0.07 0.07-1.18 1.23-2.07 2.54-0.23 0.34-0.45 0.69-0.62 1.02-1.06 2.04-0.27 0.62-0.46 1.22-0.23 0.72-0.36 1.41-0.15 0.85-0.13 1.62 0 0.01-0.01 0.03c0.06 1.67 0.74 3 2.15 3.64 1.87 0.85 3.57 1.23 5.07 1.33 3.16 0.2 5.42-0.88 6.48-1.53q0.42 0.71 0.8 1.54 0.03 0.18 0.06 0.38 0.07 0.4 0.19 0.83 0.05 0.21 0.12 0.42 0.09 0.28 0.21 0.56 0.19 0.48 0.45 0.93c0.16 0.88 0.22 1.78 0.07 2.68-0.08 0.34-0.12 0.69-0.26 1.02-0.05 0.14-0.12 0.37-0.16 0.46l-0.26 0.57c-0.19 0.35-0.46 0.76-0.76 1.14q-0.25 0.31-0.52 0.59c-1.07 1.09-2.5 1.97-4.08 2.68q-0.08 0.04-0.16 0.07-0.79 0.35-1.63 0.66c-1.07 0.38-2.18 0.74-3.33 1.13-1.42 0.49-2.88 1.02-4.31 1.75q-0.22 0.11-0.43 0.23-0.38 0.2-0.76 0.42c-0.9 0.55-1.72 1.15-2.54 1.95-0.17 0.17-0.31 0.29-0.5 0.51q-0.29 0.33-0.56 0.65-0.49 0.63-0.9 1.29c-2.18 3.55-2.46 7.72-1.66 10.86q0.32 1.25 0.76 2.3 0 0 0 0c0.87 2.09 2.02 3.61 2.96 4.68q0.16 0.16 0.3 0.32 0 0 0 0 0.73 0.76 1.21 1.17 0 0 0.01 0 0.03 0.03 0.06 0.05c0.38 0.35 0.6 0.5 0.6 0.5 0 0 0.58 0.48 1.73 1.15q0.42 0.22 0.92 0.49c0.33 0.17 0.78 0.37 1.21 0.56q0.93 0.38 2.03 0.73 0.41 0.14 0.85 0.27 0.27 0.07 0.55 0.13c2.01 0.53 4.32 0.88 6.75 1.15 2.65 0.31 5.45 0.52 8.14 1.18q0.36 0.09 0.72 0.19 0.41 0.11 0.8 0.23c1.57 0.48 3.08 1.12 4.41 1.98q0.37 0.24 0.72 0.49 0.36 0.27 0.7 0.56 0.74 0.66 1.34 1.42c0.37 0.51 0.76 1.05 0.95 1.53q0.14 0.36 0.18 0.65 0.02 0.14 0.01 0.26 0 0.03-0.01 0.06v0.03 0.01c0.05-0.18 0.01-0.04 0.02-0.08l-0.01 0.04-0.06 0.26q-0.01 0.02-0.02 0.04-0.02 0.05-0.06 0.13-0.05 0.1-0.14 0.21-0.18 0.24-0.5 0.46-0.15 0.09-0.31 0.17-0.55 0.32-1.22 0.54c-0.56 0.18-1.19 0.31-1.82 0.45q-0.51 0.1-1.01 0.2-0.92 0.18-1.79 0.33-0.4 0.07-0.78 0.14c-2.26 0.36-4.24 0.57-5.78 0.71l-0.48 0.05-0.13 0.36c-0.43 1.22-0.5 2.31-0.44 3.19q0.02 0.24 0.05 0.46-0.25 0.05-0.5 0.11-0.18 0.06-0.36 0.12-0.51 0.15-1 0.35-0.15 0.06-0.3 0.13-0.52 0.23-1.02 0.51-0.1 0.06-0.21 0.13-0.54 0.31-1.04 0.68-0.07 0.05-0.14 0.1-0.54 0.41-1.04 0.87-0.04 0.03-0.07 0.06-0.53 0.5-1.03 1.06-0.01 0.01-0.02 0.02-0.51 0.58-0.97 1.22c-2.18 3.04-3.52 7.05-3.52 11.46 0 2.51 1.04 5.16 2.56 7.7-2-1.37-4.55-2.56-7.33-2.56-6.46 0-11.7 2.9-11.7 6.48 0 0.78 0.27 1.53 0.73 2.23q0 0 0 0 0.62 0.92 1.68 1.69 0.01 0.01 0.03 0.03 0.25 0.17 0.51 0.34 0.05 0.03 0.1 0.06 0.77 0.47 1.68 0.84 0.13 0.06 0.26 0.11 0.24 0.09 0.48 0.18 0.2 0.06 0.4 0.13 0.22 0.07 0.45 0.14 0.26 0.07 0.53 0.14 0.19 0.05 0.37 0.09 0.46 0.11 0.93 0.19 0.16 0.03 0.32 0.05 0.35 0.06 0.71 0.1 0.18 0.03 0.37 0.04 0.36 0.04 0.73 0.07 0.17 0.01 0.34 0.02 0.53 0.03 1.08 0.03 0.68-0.01 1.34-0.1 0.22-0.03 0.43-0.07 0.44-0.08 0.87-0.19 0.24-0.06 0.47-0.13 0.41-0.13 0.8-0.28 0.22-0.07 0.43-0.16 0.44-0.18 0.86-0.39 0.14-0.07 0.29-0.14 0.57-0.29 1.1-0.62 0.01-0.01 0.02-0.01 0.53-0.33 1.01-0.67 0.08-0.06 0.17-0.13 0.41-0.3 0.79-0.59 0.07-0.06 0.13-0.11c0.9-0.73 1.63-1.42 2.14-1.96 2.24 2.65 4.63 4.92 6.31 6.41q0 0 0.01 0.01c1.02 0.9 1.77 1.52 2.08 1.77q0.16 0.12 0.16 0.12c0 0 1.11-1.02 2.67-2.69q0.03-0.04 0.07-0.08 0.37-0.39 0.76-0.83 0.05-0.05 0.1-0.11 0.35-0.4 0.73-0.84 0.05-0.06 0.11-0.12 0.39-0.46 0.8-0.96 0.09-0.11 0.18-0.22 0.41-0.51 0.83-1.04 0.02-0.03 0.04-0.06 0.39-0.51 0.78-1.04 0.1-0.13 0.2-0.27 0.21-0.3 0.43-0.61 0.03-0.04 0.06-0.08 0.14-0.21 0.29-0.42 0.07-0.12 0.15-0.23 0.04-0.07 0.09-0.13 0.2-0.31 0.4-0.63 0.06-0.08 0.11-0.17 0.03-0.05 0.07-0.11 0.07-0.11 0.15-0.23 0.08-0.14 0.16-0.28 0.06-0.09 0.11-0.18 0.19-0.31 0.37-0.62 0.03-0.06 0.06-0.11 0.08-0.15 0.16-0.3 0.34-0.62 0.65-1.24 0.02-0.03 0.03-0.06 0.09-0.19 0.17-0.38 0.1-0.19 0.18-0.38 0.1-0.22 0.19-0.44 0.01-0.03 0.03-0.06 0.04-0.1 0.09-0.21 0.03-0.08 0.06-0.16 0.08-0.21 0.16-0.42 0.09-0.22 0.17-0.45 0.05-0.15 0.1-0.29 0.02-0.09 0.05-0.18 0.07-0.2 0.13-0.41 0.06-0.2 0.11-0.39 0.06-0.22 0.11-0.44 0.02-0.09 0.04-0.18 0.03-0.12 0.06-0.25 0.05-0.25 0.09-0.51 0.03-0.17 0.06-0.35 0.02-0.1 0.03-0.21 0.01-0.09 0.02-0.17 0.01-0.09 0.02-0.18 0.01-0.15 0.03-0.29 0.03-0.42 0.03-0.83 0-0.01 0-0.02 0-0.94-0.08-1.86-0.03-0.29-0.07-0.59-0.07-0.61-0.17-1.21-0.06-0.34-0.14-0.67-0.11-0.54-0.24-1.07-0.09-0.34-0.2-0.67-0.15-0.51-0.33-1-0.11-0.32-0.24-0.63-0.19-0.49-0.41-0.96-0.14-0.29-0.28-0.57-0.25-0.48-0.52-0.94-0.14-0.25-0.29-0.49-0.32-0.49-0.66-0.95-0.13-0.18-0.26-0.36-0.48-0.62-1.02-1.18 0 0 0-0.01-0.01-0.01-0.03-0.03c-2.34-2.44-5.35-3.9-8.62-3.9q-0.71 0-1.4 0.09c0.01-0.73 0.14-1.59 0.5-2.53q1.02 0.06 2.25 0.07 1.52 0.01 3.3-0.09 1.07-0.07 2.23-0.19 0.75-0.07 1.53-0.16c1.27-0.17 2.83-0.34 4.38-1.21q0.15-0.09 0.29-0.2 0.28-0.18 0.55-0.42 0 0 0 0c0.48-0.41 0.91-0.94 1.2-1.72l0.09-0.25 0.01-0.04 0.03-0.13 0.03-0.1q0.02-0.11 0.04-0.21 0.06-0.42 0.05-0.83-0.05-0.82-0.29-1.5c-0.3-0.93-0.76-1.63-1.21-2.36q-0.74-1.06-1.65-1.98-0.56-0.54-1.16-1.02c-1.17-0.94-2.45-1.7-3.77-2.32q-0.8-0.38-1.61-0.69-1.05-0.39-2.08-0.7c-3.06-0.91-6-1.27-8.57-1.7q-0.31-0.05-0.61-0.1-1.37-0.22-2.6-0.47-0.89-0.19-1.69-0.39-0.89-0.22-1.66-0.47c-0.89-0.28-1.64-0.61-2.29-0.9q-0.45-0.23-0.84-0.42-0.4-0.24-0.74-0.44-0.01 0-0.01-0.01c-0.82-0.52-1.24-0.88-1.24-0.88 0 0-0.66-0.44-1.64-1.43q-0.16-0.17-0.32-0.35-0.27-0.3-0.55-0.66-0.02-0.02-0.03-0.03-0.28-0.36-0.56-0.77-0.05-0.08-0.1-0.15c-0.51-0.8-1.01-1.84-1.32-2.87q-0.28-0.95-0.37-1.94-0.09-0.86-0.02-1.8 0-0.01 0-0.03c0.1-1.33 0.49-2.72 1.18-4q0-0.01 0.01-0.02 0.26-0.48 0.58-0.93l0.29-0.39c0.1-0.13 0.29-0.33 0.43-0.49 0.46-0.5 1.09-1.03 1.75-1.48q0.43-0.29 0.89-0.55 0.66-0.39 1.38-0.73 1.16-0.55 2.41-1.05c1.55-0.61 3.22-1.27 4.83-2.08q0.61-0.31 1.2-0.65c1.34-0.78 2.59-1.71 3.65-2.86q0.17-0.17 0.34-0.35 0.3-0.36 0.56-0.73 0.02-0.03 0.04-0.06 0.02-0.03 0.05-0.07 0.22-0.33 0.43-0.69 0.28-0.48 0.51-1.04l0.22-0.59c0.11-0.31 0.14-0.5 0.2-0.74 0.14-0.46 0.17-0.94 0.23-1.4q0.02-0.41 0-0.81 1 0.44 2.41 0.45 0.06-0.01 0.11-0.01 0.48-0.01 1-0.08 1.4-0.17 3.19-0.83c1.8-0.68 2.41-0.81 4.16 0 1.7 0.79 2.53 2.71 3.11 4.49 1.23 3.78 1.85 7.68 2.49 11.58q0.46 3.22 1.14 6.36c1.24 5.79 3.09 11.63 6.3 16.65q0.16 0.24 0.33 0.48 0 0.01 0 0.02 0-0.01 0-0.02c1.45 2.19 3.16 4.24 5.22 5.89 2.88 2.31 5.69 2.2 8.8 3.67-0.82 0.91-1.87 1.55-3.04 1.96 6.84 1.32 13.67-1.31 20.06-4.35q0 0 0 0 1.31-0.63 2.6-1.27 2.9-1.42 5.25-3.34 0.78-0.64 1.49-1.34 1.44-1.41 2.6-3.09 0.05-0.08 0.1-0.16c2.23 5.19 5.76 9.57 9.62 13.66 7.02 3.38 10.88 5.63 10.88 5.63 0 0-0.14 0.37-0.3 1.04q-0.11 0.48-0.22 1.14 0 0.03-0.01 0.07-0.04 0.31-0.08 0.66 0 0.06-0.01 0.12-0.03 0.33-0.05 0.69-0.01 0.04-0.01 0.08-0.02 0.38-0.02 0.78 0 0.1 0 0.21 0 0.41 0.02 0.85 0.01 0.06 0.01 0.13 0.02 0.39 0.07 0.8 0.01 0.12 0.02 0.24 0.05 0.46 0.13 0.94 0.03 0.12 0.05 0.24 0.08 0.43 0.18 0.88 0.02 0.1 0.04 0.19 0.13 0.51 0.29 1.04 0.04 0.14 0.09 0.28 0.17 0.55 0.38 1.11 0.02 0.05 0.04 0.1 0.21 0.53 0.46 1.07 0.06 0.14 0.12 0.28 0.27 0.57 0.59 1.16 0.06 0.11 0.13 0.22 0.3 0.54 0.65 1.08 0.06 0.11 0.12 0.21 0.4 0.6 0.85 1.21 0.1 0.14 0.21 0.28 0.47 0.63 1.01 1.26c6.48 7.56 18.95 16.82 23.82 20.33q-1.59-0.29-3.1-0.25c-9.44-2.72-29.04-6.35-33.64 8.49l20.85 0.11q-0.05 0.11-0.1 0.22-0.22 0.53-0.31 0.82-0.09 0.27-0.09 0.28 0-0.01 0.11-0.28 0.1-0.28 0.34-0.8 0.01-0.01 0.02-0.02l2.78-0.11 2.17-0.08 21.91 0.12c0 0 0.67 0 1.88 0.01-0.09 1.05-0.13 1.62-0.13 1.62 0 0 0.09-0.57 0.25-1.62q0.53 0 1.17 0.01h0.78c1.36 0.01 3.04 0.02 4.97 0.03h0.27q0.92 0 1.91 0.01l1.25 0.01q2.52 0.01 5.37 0.03h1.04c2.64 0.02 5.44 0.03 8.33 0.05h1.12q3.26 0.02 6.61 0.04l2.5 0.01q1.12 0.01 2.25 0.02h1.48q2.93 0.02 5.79 0.04l1.74 0.01q0.29 0 0.57 0l3.07 0.02q0.73 0 1.45 0l2.28 0.02q0.8 0 1.58 0.01l2.64 0.01q1.08 0.01 2.11 0.01l7.53 0.04q0 0 0 0l2.64 0.02q0.14 0 0.27 0l2.41 0.01q0.35 0 0.57 0.01h0.27q0.01 0 0.01 0h0.12c0 0 2.57-6.91 4.03-17.33q0.62 0.07 1.22 0.2 0.56 0.11 1.11 0.27c7.35 2.1 13.76 9.54 25.89 10.84q0.91 0.1 1.86 0.15 0.96 0.05 1.96 0.05 1 0 2.05-0.06 3.14-0.17 6.77-0.92c8.07-1.7 13.3-6.86 16.55-13.76q0.98-2.08 1.73-4.34 0.37-1.14 0.7-2.31 0.64-2.34 1.1-4.81 0.22-1.24 0.41-2.5 0.36-2.52 0.57-5.11 0.1-1.29 0.16-2.6 0.14-2.6 0.14-5.22 0-1.3-0.02-2.6-0.06-2.6-0.21-5.15-0.07-1.27-0.16-2.52c-0.44-5.83-1.18-11.27-1.93-15.74-0.74-4.46-2.76-9.28-5.45-14.09q-0.57-1.03-1.19-2.06-1.24-2.06-2.6-4.09-0.67-1.01-1.38-2.01-1.4-2.01-2.87-3.95-0.73-0.96-1.48-1.91-1.48-1.89-2.97-3.68-1.16-1.4-2.3-2.72c-6.57-7.6-12.33-13.07-13.01-13.7q-0.07-0.07-0.07-0.07l4.76 10.2c0 0-5.44-2.04-9.78-6.04q-0.41-0.37-0.8-0.77-0.78-0.8-1.48-1.68-0.35-0.44-0.66-0.91-0.64-0.93-1.13-1.95-0.24-0.52-0.44-1.05-0.4-1.07-0.59-2.22c-0.45-2.7 0.02-5.76 1.95-9.19 1.11-1.95 2.68-3.54 4.59-4.81z"/>
			</g>
		</g>
		<text id="Oops! Page not found..." style="opacity: .7;mix-blend-mode: multiply;transform: matrix(1,0,0,1,117.053,432.853)" >
			<tspan x="0" y="0" class="t1">Oops! Page not found...
</tspan>
		</text>
		<g id="&lt;Group&gt;">
			<g id="&lt;Group&gt;">
				<path id="&lt;Path&gt;" class="s2" d="m439.71 311.39h-379.61c-2.2 0-4-1.8-4-4v-6.44c0-2.2 1.8-4 4-4h379.61c2.2 0 4 1.8 4 4v6.44c0 2.2-1.8 4-4 4z"/>
				<path id="&lt;Path&gt;" class="s3" d="m60.18 296.95c-2.15 0-3.91 1.7-4.05 3.82 0.14 2.12 1.9 3.82 4.05 3.82h379.45c2.16 0 3.92-1.7 4.06-3.82-0.14-2.12-1.9-3.82-4.06-3.82z"/>
				<g id="&lt;Group&gt;">
					<path id="&lt;Path&gt;" class="s4" d="m63.3 301.8q144.88 0 289.76 0 41.18 0 82.35 0c1.48 0 1.48-2.3 0-2.3q-144.88 0-289.76 0-41.17 0-82.35 0c-1.48 0-1.48 2.3 0 2.3z"/>
				</g>
			</g>
			<g id="&lt;Group&gt;">
				<path id="&lt;Path&gt;" class="s2" d="m439.71 394.03h-379.61c-2.2 0-4-1.8-4-4v-6.44c0-2.2 1.8-4 4-4h379.61c2.2 0 4 1.8 4 4v6.44c0 2.2-1.8 4-4 4z"/>
				<path id="&lt;Path&gt;" class="s3" d="m60.18 379.59c-2.15 0-3.91 1.69-4.05 3.82 0.14 2.12 1.9 3.82 4.05 3.82h379.45c2.16 0 3.92-1.7 4.06-3.82-0.14-2.13-1.9-3.82-4.06-3.82z"/>
				<g id="&lt;Group&gt;">
					<path id="&lt;Path&gt;" class="s4" d="m63.3 384.43q144.88 0 289.76 0 41.18 0 82.35 0c1.48 0 1.48-2.29 0-2.29q-144.88 0-289.76 0-41.17 0-82.35 0c-1.48 0-1.48 2.29 0 2.29z"/>
				</g>
			</g>
		</g>
		<g id="&lt;Group&gt;">
			<g id="&lt;Group&gt;">
				<path id="&lt;Path&gt;" class="s5" d="m351.49 272.52c0 0 11.56-5.44 17.68-6.8l-6.12 6.12c0 0 23.12 12.93 32.64 1.36 9.53-11.56 8.17-44.2-15.64-65.97-23.8-21.76-38.09-11.56-53.05-36.72l9.52 4.08c0 0-21.08-14.29 4.77-40.13 25.84-25.84 46.92-13.6 46.92-13.6 0 0 31.29 8.84 31.29 33.32 0 0-38.77-8.16-47.61 7.48-8.84 15.65 12.92 23.81 12.92 23.81l-4.76-10.2c0 0 29.93 27.88 33.33 48.29 3.4 20.4 6.8 61.21-19.05 66.65-25.84 5.44-31.96-13.6-45.56-10.2-13.61 3.4 2.72-7.49 2.72-7.49z"/>
			</g>
			<g id="&lt;Group&gt;" style="opacity: .29;mix-blend-mode: multiply">
				<path id="&lt;Path&gt;" class="s0" d="m419.5 154.18c0-24.48-31.29-33.32-31.29-33.32 0 0-18.03-10.45-41.18 8.41 6.89-2.87 18.84-7.09 31.66-3.99l-9.18 6.46c0 0 11.9-3.4 16.32-1.02 4.42 2.38 13.26 11.22 14.29 14.96 0 0-40.13-7.14-41.49 20.75-1.36 27.88 25.5 23.12 38.08 43.18 12.59 20.07 16.33 39.11 14.97 49.65-1.36 10.54-8.16 23.13-18.71 25.51-10.54 2.38-36.72-1.02-31.96-7.15 1.46-1.87 3.27-3.24 5.1-4.26-1.9-0.87-3.06-1.52-3.06-1.52l6.12-6.12c-6.12 1.36-17.68 6.8-17.68 6.8 0 0-16.33 10.89-2.72 7.49 13.6-3.4 19.72 15.64 45.56 10.2 25.85-5.44 22.45-46.25 19.05-66.65-3.4-20.41-33.33-48.29-33.33-48.29l4.76 10.2c0 0-21.76-8.16-12.92-23.81 8.84-15.64 47.61-7.48 47.61-7.48z"/>
			</g>
			<path id="&lt;Path&gt;" class="s6" d="m388.21 120.86c0 0-21.08-12.24-46.92 13.6-25.85 25.84-4.77 40.13-4.77 40.13l-9.52-4.08c14.22 23.9 27.82 15.91 49.55 33.71-0.29-2.86-0.93-5.68-1.92-8.37 6.8 3.93 12.63 9.51 16.87 16.12-0.59-6.15-1.95-12.21-4.03-18.02q3.87 2.13 7.74 4.26c-1.16-2.86-2.25-6.18-2.07-9.17-7-8.09-13.09-13.77-13.09-13.77l4.76 10.2c0 0-21.76-8.16-12.92-23.81 8.84-15.64 47.61-7.48 47.61-7.48 0-24.48-31.29-33.32-31.29-33.32z"/>
			<path id="&lt;Path&gt;" class="s7" d="m388.07 120.78q-0.03-0.02-0.07-0.04-0.08-0.04-0.2-0.1-0.03-0.01-0.06-0.03-0.13-0.06-0.3-0.14-0.01-0.01-0.03-0.01-0.02-0.01-0.03-0.02-0.18-0.09-0.4-0.18-0.01 0-0.02-0.01-0.02-0.01-0.04-0.01-0.23-0.1-0.5-0.21-0.02-0.01-0.04-0.02-0.29-0.11-0.61-0.23-0.01-0.01-0.02-0.01c-5.69-2.08-20.65-5.22-38.72 9.5 6.89-2.87 18.84-7.09 31.66-3.99l-9.18 6.46c0 0 11.9-3.4 16.32-1.02 4.42 2.38 13.26 11.22 14.29 14.96 0 0-40.13-7.14-41.49 20.75-1.15 23.43 17.64 23.81 31.14 35.24q-0.94-3.92-2.3-7.72 3.87 2.13 7.74 4.26c-1.16-2.86-2.25-6.18-2.07-9.17-6.55-7.57-12.3-13.03-13.01-13.7q-0.07-0.07-0.08-0.07l4.76 10.2c0 0-21.76-8.16-12.92-23.81 8.84-15.64 47.61-7.48 47.61-7.48 0-24.48-31.29-33.32-31.29-33.32q0 0-0.05-0.03-0.04-0.02-0.09-0.05z"/>
			<path id="&lt;Path&gt;" class="s5" d="m198.96 217.75c0 0-12.24 14.28-21.76 4.76-9.52-9.53-0.68-42.17-21.08-52.37-20.41-10.2-33.33 12.92-25.85 16.32 7.48 3.4 12.24-0.68 12.24-0.68 0 0-0.68 10.88 10.21 6.8 10.88-4.08 8.84 0 8.84 0-0.29 7.46 0.48 15.15 2.05 22.44 1.25 5.78 3.09 11.62 6.3 16.64 1.53 2.38 3.34 4.6 5.56 6.37 2.88 2.32 5.68 2.2 8.79 3.67-0.82 0.91-1.87 1.55-3.04 1.96 7.79 1.5 15.55-2.11 22.67-5.62 5.15-2.54 9.03-6.12 11.4-11.45 2.72-6.12-6.8-18.37-16.33-8.84z"/>
			<g id="&lt;Group&gt;" style="opacity: .29;mix-blend-mode: multiply">
				<path id="&lt;Path&gt;" class="s0" d="m198.96 217.75c0 0-12.24 14.28-21.76 4.76q-0.56-0.57-1.03-1.24c0.53 2.93 2.06 6.74 6.47 8.37 7.28 2.7 15.1-2.43 15.1-2.43l-3.24 4.86c0 0 8.09-4.05 9.44-2.7 1.13 1.13-5.75 7.23-2.66 9.94q1.32-0.63 2.61-1.27c5.15-2.54 9.03-6.12 11.4-11.45 2.72-6.12-6.8-18.37-16.33-8.84z"/>
			</g>
			<path id="&lt;Path&gt;" class="s5" d="m250.73 94.47c0 0 4.81-18.56 3.44-26.81l4.12 4.81-2.06-21.99c0 0 39.86 33.68 21.99 61.17-17.87 27.49-27.49-17.18-27.49-17.18z"/>
			<g id="&lt;Group&gt;">
				<path id="&lt;Path&gt;" class="s6" d="m258.29 72.47l-4.12-4.81c1.37 8.25-3.44 26.81-3.44 26.81 0 0 2.57 11.91 7.51 19.64 3.18-0.17 6.81-2.69 10.86-8.92 12.02-18.49-2.07-39.77-12.59-51.73z"/>
			</g>
			<path id="&lt;Path&gt;" class="s7" d="m268.15 79.8l-4.12-4.81c1.37 8.25-3.44 26.81-3.44 26.81 0 0 1.11 5.16 3.28 10.89 1.66-1.43 3.4-3.48 5.23-6.29 7.99-12.29 4.44-25.8-1.92-37z"/>
			<path id="&lt;Path&gt;" class="s5" d="m193.08 98.97c0 0 0.42-17.4-2.5-24.41l4.64 3.4-6.38-19.01c0 0 42.21 21.52 32.1 49.52-10.11 28-27.86-9.5-27.86-9.5z"/>
			<g id="&lt;Group&gt;">
				<path id="&lt;Path&gt;" class="s6" d="m195.22 77.96l-4.64-3.4c2.92 7.01 2.5 24.41 2.5 24.41 0 0 4.74 10 10.7 15.81 2.79-0.81 5.47-3.79 7.76-10.13 6.8-18.83-10.06-34.73-21.83-43.13z"/>
			</g>
			<path id="&lt;Path&gt;" class="s7" d="m204.74 78.3l-4.64-3.4c2.92 7.01 2.51 24.41 2.51 24.41 0 0 2.62 5.54 6.42 10.76 0.87-1.44 1.72-3.22 2.51-5.42 4.35-12.05-0.99-22.89-8.48-31.34z"/>
			<g id="&lt;Group&gt;">
				<path id="&lt;Path&gt;" class="s5" d="m346.73 231.04l6.12 7.48c0 0-4.76-21.09-21.09-27.89-16.32-6.8-44.21-10.88-60.53-44.2 0 0 14.28-5.45 20.41-11.57l6.8-1.36-6.12-4.08 13.6-1.36-16.32-10.88h8.84c0 0-15.65-14.96-17.01-21.08-1.36-6.12-2.04-19.05-10.2-21.77 0 0-34-14.28-71.41-2.04l-8.84 2.04 5.44 3.4c0 0-5.44 21.09-25.85 34.01l4.77 0.68c0 0-7.49 5.44-11.57 7.48l10.89 4.76c-5.45 2.72-5.45 2.72-5.45 2.72 0 0 19.05 12.92 25.85 17 6.8 4.09 13.6 6.81 15.64 6.81 1.52 0-8.24 13.53-16.15 22.15 3.37 0.06 6.73 2.25 6.8 6.58 0.13 8.16 2.28 16.28 5.78 23.82 2.32 0.35 4.49 1.78 5.48 4.57 2.13 5.99 6.03 10.9 10.33 15.46 7.03 3.38 10.89 5.63 10.89 5.63 0 0-3.4 8.84 4.76 18.36 8.16 9.53 25.84 21.77 25.84 21.77 0 0-32.64-12.92-38.77 6.8l123.79 0.68c0 0 12.92-34.69-2.72-65.97z"/>
			</g>
			<g id="&lt;Group&gt;" style="opacity: .29;mix-blend-mode: multiply">
				<path id="&lt;Path&gt;" class="s0" d="m274.54 296.33c0.66-6.2 0.84-12.45 1.01-18.7-2.53-3.4-1.38-7.69-1.37-11.63 0.01-4.56-0.3-9.11-0.8-13.63-0.97-8.74-4.16-17.74-4.53-26.45 0.11 2.64-0.28 5.3-1.15 7.79q-0.66-5.28-1.31-10.56c-0.26-2.1 0.08-7.53-1.93-8.61-0.83 1.89 0.04 5.2 0.27 7.3 0.47 4.06 1.03 8.12 1.59 12.18 0.86 6.32 2.39 12.95 2.39 19.36 0 4.9-5.21-3.26-5.21-3.26l3.58 19.25c0 0-12.07-10.12-11.41-9.14 0.65 0.98 12.07 8.48 15 19.57 2.94 11.1 1.63 14.36 1.63 14.36 0 0-7.83 0-11.09 0-3.26 0-6.2-0.33-6.2-0.33 0-1.9-6.07 0.53-5.81 2.5z"/>
			</g>
			<path id="&lt;Path&gt;" class="s8" d="m272.18 128.14c0 20.74-19.45 37.56-43.45 37.56-24 0-43.45-16.82-43.45-37.56 0-20.74 19.45-37.56 43.45-37.56 24 0 43.45 16.82 43.45 37.56z"/>
			<g id="&lt;Group&gt;" style="opacity: .29;mix-blend-mode: multiply">
				<path id="&lt;Path&gt;" class="s0" d="m285.33 291.02c0.12-1.12-8.77-15.14-8.77-15.14 0 0 0.51 10.16 0 8.39-0.51-1.78-20.38-20.13-20.38-20.13l-3 2.08-6.12-5.94c0 0-5.82-2.45-5.33-3.99 0 0-0.24-2.27-2.02-3.54-1.43-1.02-4.51-1.88-6.18-2.31-0.61 2.61-1.44 9.75 5.06 17.32 8.16 9.53 25.84 21.77 25.84 21.77 0 0-32.64-12.92-38.77 6.8l46.25 0.25c3.5-6.07 13.31-4.55 13.42-5.56z"/>
			</g>
			<g id="&lt;Group&gt;" style="opacity: .29;mix-blend-mode: multiply">
				<path id="&lt;Path&gt;" fill-rule="evenodd" class="s0" d="m342.35 296.97c4.39 0.02 7.1 0.04 7.1 0.04 0 0 12.92-34.69-2.72-65.97l6.12 7.48c0 0-4.76-21.09-21.09-27.89-16.32-6.8-44.21-10.88-60.53-44.2 0 0 14.28-5.45 20.41-11.57l6.8-1.36-6.12-4.08 13.6-1.36-16.32-10.88h8.84c0 0-15.65-14.96-17.01-21.08-1.36-6.12-2.04-19.05-10.2-21.77 0 0-34-14.28-71.41-2.04l-0.56 0.13-1.23 0.55c1.02 0 41.58-5.1 63.77 3.32 0 0-6.89 3.82-5.87 3.82 1.02 0 11.22 4.08 14.03 6.63 2.8 2.56 9.18 19.64 14.79 25.25l-6.89-1.02c0 0 8.93 9.95 13.52 12.25h-8.93c0 0 8.17 6.12 7.66 8.41-0.51 2.3-37.75 20.41-56.88 18.11l3.32 2.3c0 0-24.74-0.26-31.37-3.83-5.47-2.94-16.81-8.65-20.64-10.57 4.12 2.71 8.1 5.29 10.52 6.74 6.8 4.09 13.6 6.81 15.64 6.81 0.22 0 0.2 0.29-0.02 0.81 0.06 0.01 10.83 2.85 14.13 4.12 3.32 1.27 0-1.02 0-1.02 0-1.02 10.46 0.25 16.84-0.77 6.37-1.02 18.1-1.78 18.1-1.78 0 0-9.43 6.37-11.98 12.75 0 0 6.12-4.85 8.16-5.87 2.04-1.02 5.36-2.04 5.36-2.04 0 0 4.33 2.81 9.94 11.48 5.61 8.67 36.73 25.5 36.73 25.5l-3.32-4.84c11.15 3.83 24.39 7.8 28.23 20.28-2.32-1.38-4.95-2.24-7.63-2.51 7.66 11.74 12.11 25.55 12.75 39.56 0.25 5.33-0.19 11.08-3.51 15.26q-0.68-3.73-1.36-7.46c-3.78 5.52-7.69 11.18-13.25 14.9-7.19 4.81-14.2 2.59-22.1 3.15-6.11 0.43-12.25 0.66-18.38 0.98 0 0-3.4 1.12-6.05 2.9 0 0 50.12 0.28 69.01 0.38z"/>
			</g>
			<path id="&lt;Path&gt;" class="s6" d="m246.07 254.5l7.82 4.42 0.34-8.16 12.58 14.62c0 0 1.36-9.18 1.36-8.16 0 1.02 3.07 5.65 3.07 5.65l0.33-12.11 1.28 15.04c2.8-1.1 2.66 29.77 2.66 29.77l-29.09 1.09c0 0 6.96-10.5 12.48-8.82 5.53 1.69 8.63 3.3 8.63 3.3 0 0-0.56-18.53-5.91-21.46-5.35-2.94-6.65-4.53-6.65-4.53l-0.18 2.12c0 0-10.76-5.97-8.72-12.77z"/>
			<path id="&lt;Path&gt;" class="s6" d="m305.92 148.06l-14.8-9.86-18.45 6.22-0.86-7.29c0 0-13.73 9.44-15.01 9.87-1.29 0.43 2.14-4.29 2.14-4.29-1.46 2.01-12.57 1.77-14.82 1.85-6.37 0.23-13.88 4.12-17.4-3.05-3.68-7.5-2.52-16.39-1.02-24.61q-2.14 2.78-4.28 5.56c-0.79-4.65-1.09-9.38-0.89-14.09q-2.87 7.56-5.16 15.31c-0.23-2.06-1.24-4.02-2.78-5.41-0.15 9.71-4.96 14.88-11.14 21.01-1.29 1.28-4.28-0.01-4.28-0.01h-14.59l5.15-3c0 0-11.52-6.71-14.25-6.51q-1.4 1.02-2.91 1.98l4.77 0.68c0 0-7.49 5.44-11.57 7.48l10.89 4.76c-5.45 2.72-5.45 2.72-5.45 2.72 0 0 19.05 12.92 25.85 17 2.8 1.69 5.6 3.13 8.07 4.26q0.03 0.01 0.06 0.03 0.43 0.19 0.85 0.37 0.07 0.04 0.15 0.07 0.39 0.17 0.77 0.33 0.08 0.03 0.16 0.06 0.38 0.16 0.74 0.31 0.03 0.01 0.05 0.02 0.75 0.29 1.41 0.52 0.06 0.02 0.13 0.05 0.21 0.07 0.42 0.14 0.18 0.06 0.36 0.12 0.17 0.05 0.34 0.1 0.19 0.06 0.36 0.11 0.15 0.04 0.29 0.07 0.18 0.05 0.35 0.08 0.12 0.03 0.23 0.05 0.17 0.04 0.33 0.06 0.09 0.02 0.16 0.03 0.23 0.02 0.41 0.03 0.09 0 0.12 0.06 0.01 0.02 0.02 0.06 0.01 0.04 0.01 0.11 0 0.05-0.02 0.12-0.01 0.07-0.04 0.15-0.02 0.08-0.06 0.18-0.02 0.06-0.05 0.12-0.21 0.5-0.63 1.24 0 0-0.01 0-0.15 0.28-0.34 0.58c-3.89 6.42-16.69 22.68-22.12 25.94l11.56-0.68-3.74 2.44 4.42 0.96-4.08 11.56 10.2-0.68c2.04 16.33 26.53 29.25 26.53 29.25-2.04-15.64-1.36-17.68 12.92-36.05 11.15-14.34 27.28-23.7 33.81-27.11-2.86-3.77-5.54-8.06-7.97-13.01 0 0 0.28-0.11 0.74-0.3q0.01 0 0.01 0 0.02-0.01 0.05-0.02 0.16-0.07 0.36-0.15 0.15-0.06 0.32-0.13 0.17-0.07 0.34-0.14 0.24-0.1 0.49-0.2 0.14-0.06 0.29-0.13 1.16-0.49 2.65-1.16 0.1-0.05 0.2-0.1c4.7-2.15 11.29-5.57 14.96-9.24l6.8-1.36-6.12-4.08z"/>
			<path id="&lt;Path&gt;" class="s9" d="m298.44 137.18c0 0-0.42-0.4-1.11-1.08l-3.19 1.08z"/>
			<g id="&lt;Group&gt;">
				<path id="&lt;Path&gt;" class="s10" d="m231.36 133.23c0.33-0.17 6.06-15.72 13.7-18.45h-4.64c0 0 4.09-3 12.27-2.18 8.19 0.82 14.19 9.55 14.19 9.55z"/>
				<g id="&lt;Group&gt;">
					<path id="&lt;Path&gt;" class="s0" d="m231.36 133.23c2.09-1.33 42.31-15.08 42.31-15.08 0 0-8.54 19.86-19.23 20.62-10.69 0.76-23.08-5.54-23.08-5.54z"/>
				</g>
				<g id="&lt;Group&gt;">
					<path id="&lt;Path&gt;" class="s11" d="m231.36 133.23l36.14-9.85c0 0-13.14 31.75-36.14 9.85z"/>
				</g>
				<g id="&lt;Group&gt;">
					<path id="&lt;Path&gt;" class="s0" d="m243.09 132.8c0.65 3.3 2.25 5.76 3.58 5.5 1.32-0.26 1.86-3.15 1.2-6.45-0.21-1.07-0.52-2.05-0.89-2.88l-4.17 1.14q0 1.25 0.28 2.69z"/>
				</g>
				<path id="&lt;Path&gt;" class="s12" d="m232.1 133.53l31.07-7.34c0 0-1.15 4.35-2.95 8.27 4.76-5 7.28-11.08 7.28-11.08l-36.12 9.84q0.33 0.16 0.72 0.31z"/>
				<path id="&lt;Path&gt;" class="s13" d="m244.59 134.27c0 1.18-0.96 2.13-2.13 2.13-1.18 0-2.13-0.95-2.13-2.13 0-1.17 0.95-2.12 2.13-2.12 1.17 0 2.13 0.95 2.13 2.12z"/>
				<g id="&lt;Group&gt;">
					<g id="&lt;Group&gt;">
						<path id="&lt;Path&gt;" fill-rule="evenodd" class="s14" d="m234.63 125.11c1.01-1.79 2.15-3.27 3.03-4.28 0.89-1.01 1.51-1.57 1.51-1.57 0 0-0.35 0.76-0.96 1.94-0.6 1.19-1.44 2.81-2.42 4.55-0.98 1.75-1.93 3.31-2.63 4.44-0.7 1.14-1.16 1.84-1.16 1.84 0 0 0.16-0.83 0.56-2.11 0.4-1.28 1.07-3.02 2.07-4.81z"/>
					</g>
					<g id="&lt;Group&gt;">
						<path id="&lt;Path&gt;" fill-rule="evenodd" class="s14" d="m235.67 127.84c1.58-1.45 3.28-2.42 4.55-2.99q0.97-0.42 1.54-0.6 0.56-0.17 0.57-0.18c0 0-0.68 0.52-1.77 1.35-1.08 0.83-2.5 2.02-4 3.4-1.49 1.38-2.79 2.69-3.72 3.7-0.91 1.02-1.48 1.65-1.48 1.65q0-0.01 0.22-0.56 0.22-0.55 0.73-1.48c0.67-1.22 1.78-2.83 3.36-4.29z"/>
					</g>
					<g id="&lt;Group&gt;">
						<path id="&lt;Path&gt;" fill-rule="evenodd" class="s14" d="m257.19 118.57c2.16 0.4 3.96 1.33 5.11 2.16q0.87 0.63 1.29 1.06 0.43 0.42 0.44 0.43-0.01 0-0.55-0.26-0.54-0.26-1.5-0.65c-1.27-0.51-3.04-1.07-5.03-1.44-2-0.37-3.86-0.49-5.22-0.47q-1.04 0.01-1.63 0.06-0.6 0.04-0.61 0.05 0.01-0.01 0.56-0.25 0.55-0.24 1.59-0.52c1.37-0.36 3.38-0.57 5.55-0.17z"/>
					</g>
					<g id="&lt;Group&gt;">
						<path id="&lt;Path&gt;" fill-rule="evenodd" class="s14" d="m260.89 116.7c1 0.52 1.86 1.16 2.57 1.81 0.71 0.67 1.26 1.34 1.66 1.95q0.59 0.92 0.82 1.49 0.23 0.56 0.24 0.57-0.01-0.01-0.42-0.46-0.39-0.46-1.15-1.18c-1-0.94-2.5-2.07-4.32-3.01-1.82-0.92-3.61-1.49-4.96-1.75q-1.03-0.21-1.63-0.25-0.6-0.07-0.62-0.07 0.02 0 0.61-0.14 0.6-0.15 1.69-0.2c0.72-0.04 1.59 0.03 2.54 0.21 0.95 0.19 1.97 0.52 2.97 1.03z"/>
					</g>
				</g>
			</g>
			<g id="&lt;Group&gt;">
				<path id="&lt;Path&gt;" class="s10" d="m204.63 131.93c-0.2-0.18-1.54-11.9-6.36-15.08l3.21 0.79c0 0-2.33-2.77-8.13-3.59-5.8-0.81-11.42 4.22-11.42 4.22z"/>
				<g id="&lt;Group&gt;">
					<path id="&lt;Path&gt;" class="s0" d="m204.63 131.93c-1.22-1.27-26.73-17.57-26.73-17.57 0 0 2.56 15.17 9.82 17.51 7.27 2.33 16.91 0.06 16.91 0.06z"/>
				</g>
				<g id="&lt;Group&gt;">
					<path id="&lt;Path&gt;" class="s11" d="m204.63 131.93l-23.34-12.92c0 0 3.73 24.19 23.34 12.92z"/>
				</g>
				<g id="&lt;Group&gt;">
					<path id="&lt;Path&gt;" class="s0" d="m192.82 127.75c-1.01 2.18-2.54 3.61-3.41 3.21-0.87-0.41-0.76-2.5 0.26-4.67q0.5-1.07 1.1-1.84l2.69 1.49q-0.21 0.87-0.64 1.81z"/>
				</g>
				<path id="&lt;Path&gt;" class="s12" d="m204.07 132.01l-20.26-10.32c0 0 0.06 3.21 0.64 6.22-2.44-4.26-3.16-8.9-3.16-8.9l23.32 12.91q-0.25 0.06-0.54 0.09z"/>
				<path id="&lt;Path&gt;" class="s13" d="m187.89 126.44c-0.2 0.81 0.3 1.63 1.11 1.83 0.82 0.2 1.64-0.3 1.84-1.11 0.19-0.82-0.3-1.64-1.12-1.83-0.81-0.2-1.63 0.3-1.83 1.11z"/>
				<g id="&lt;Group&gt;">
					<g id="&lt;Group&gt;">
						<path id="&lt;Path&gt;" fill-rule="evenodd" class="s14" d="m203.73 125.76c-0.39-1.41-0.93-2.62-1.37-3.47-0.44-0.85-0.78-1.35-0.78-1.35 0 0 0.12 0.59 0.34 1.51 0.22 0.93 0.52 2.19 0.91 3.56 0.38 1.38 0.77 2.61 1.06 3.52 0.3 0.9 0.5 1.46 0.5 1.46 0 0 0.03-0.6-0.03-1.55-0.07-0.96-0.23-2.28-0.63-3.68z"/>
					</g>
					<g id="&lt;Group&gt;">
						<path id="&lt;Path&gt;" fill-rule="evenodd" class="s14" d="m202.56 127.48c-0.85-1.27-1.86-2.24-2.65-2.84q-0.59-0.46-0.96-0.68-0.36-0.21-0.37-0.22c0 0 0.39 0.47 1 1.23 0.61 0.76 1.39 1.82 2.19 3.03 0.81 1.21 1.48 2.34 1.95 3.19 0.46 0.86 0.75 1.39 0.75 1.39q0 0-0.06-0.42-0.06-0.42-0.25-1.15c-0.26-0.96-0.76-2.26-1.6-3.53z"/>
					</g>
					<g id="&lt;Group&gt;">
						<path id="&lt;Path&gt;" fill-rule="evenodd" class="s14" d="m189.24 117.42c-1.57-0.08-2.97 0.26-3.91 0.64q-0.7 0.29-1.07 0.51-0.37 0.22-0.37 0.23 0 0 0.42-0.09 0.41-0.09 1.15-0.2c0.96-0.14 2.28-0.22 3.72-0.15 1.45 0.09 2.75 0.32 3.69 0.56q0.72 0.19 1.12 0.32 0.41 0.13 0.41 0.13 0 0-0.34-0.26-0.34-0.26-1.02-0.63c-0.88-0.48-2.24-0.97-3.8-1.06z"/>
					</g>
					<g id="&lt;Group&gt;">
						<path id="&lt;Path&gt;" fill-rule="evenodd" class="s14" d="m186.99 115.51c-0.78 0.19-1.49 0.49-2.09 0.82q-0.9 0.52-1.47 1.07-0.57 0.53-0.82 0.89-0.26 0.35-0.26 0.35 0.01 0 0.36-0.24 0.35-0.26 1-0.62c0.85-0.49 2.08-1.01 3.5-1.36 1.41-0.33 2.74-0.42 3.73-0.37q0.74 0.03 1.16 0.1 0.43 0.05 0.44 0.05-0.01 0-0.39-0.2-0.39-0.2-1.14-0.42-0.75-0.23-1.8-0.29c-0.68-0.02-1.45 0.04-2.22 0.22z"/>
					</g>
				</g>
			</g>
			<g id="&lt;Group&gt;">
				<path id="&lt;Path&gt;" class="s0" d="m208.22 138.46c0 0-4.71-5.08-3.63-0.85 1.08 4.22 3.03 6.55 3.03 6.55 0 0 9.1-6.4 6.78-8.21-2.32-1.81-6.18 2.51-6.18 2.51z"/>
			</g>
			<g id="&lt;Group&gt;">
				<path id="&lt;Path&gt;" fill-rule="evenodd" class="s10" d="m213.63 132.41c1.34 0.01 2.53 0.29 3.37 0.57 0.85 0.28 1.35 0.55 1.35 0.55 0 0-0.55 0.14-1.42 0.27-0.86 0.13-2.03 0.27-3.31 0.25-1.29-0.01-2.45-0.16-3.32-0.31-0.86-0.15-1.41-0.3-1.41-0.3 0 0 0.51-0.26 1.36-0.52 0.85-0.26 2.05-0.52 3.38-0.51z"/>
			</g>
			<g id="&lt;Group&gt;">
				<path id="&lt;Path&gt;" fill-rule="evenodd" class="s10" d="m213.95 129.37c0.83-0.07 1.6 0.12 2.13 0.34 0.53 0.21 0.83 0.44 0.83 0.44 0 0-0.34 0.18-0.85 0.38-0.52 0.19-1.2 0.41-1.95 0.48-0.76 0.07-1.47-0.01-2.01-0.11-0.55-0.09-0.91-0.21-0.91-0.21 0 0 0.26-0.28 0.74-0.59 0.47-0.31 1.19-0.65 2.02-0.73z"/>
			</g>
			<g id="&lt;Group&gt;">
				<path id="&lt;Path&gt;" fill-rule="evenodd" class="s10" d="m210.4 161.23c1.34 0.8 2.68 1.33 3.74 1.58 0.53 0.12 0.98 0.2 1.29 0.23q0.49 0.06 0.5 0.06-0.01 0-0.46 0.19-0.47 0.21-1.36 0.34c-1.18 0.16-2.94-0.02-4.55-0.99-1.61-0.97-2.6-2.44-3-3.56q-0.31-0.85-0.34-1.36-0.05-0.49-0.05-0.5 0 0.01 0.29 0.41c0.17 0.26 0.45 0.62 0.81 1.03 0.71 0.82 1.8 1.76 3.13 2.57z"/>
			</g>
			<g id="&lt;Group&gt;">
				<path id="&lt;Path&gt;" fill-rule="evenodd" class="s10" d="m218.2 166.94q0.27-0.53 0.53-1.01 0.39 0.71 0.77 1.41c0.12 0.24 0.26 0.44 0.38 0.65l0.19 0.3 0.11 0.16q0.36 0.55 0.76 1.01c0.52 0.62 1.06 1.14 1.55 1.53 0.49 0.4 0.92 0.7 1.23 0.89q0.48 0.29 0.48 0.3 0 0-0.57-0.08c-0.36-0.06-0.89-0.19-1.53-0.45-0.63-0.25-1.36-0.65-2.08-1.24q-0.55-0.45-1.05-1.03l-0.11-0.13h-0.01q-0.02 0-0.02 0-0.01 0.01-0.01 0.02v0.01c-0.01 0.02 0.02-0.03 0.03-0.06l0.02-0.06-0.14 0.28q-0.47 0.85-0.92 1.66-1.22-1.38-2.25-2.54-0.71-0.78-1.25-1.36c-0.74-0.76-1.18-1.22-1.18-1.22 0 0 0.61 0.21 1.56 0.72q0.72 0.37 1.63 1.01 0.45 0.31 0.92 0.7c0.03 0.03 0.1 0.08 0.1 0.08l0.03 0.01h0.03q0.03 0 0.04-0.01c0.01-0.04 0.02-0.1-0.05 0.02-0.03 0.05 0.01-0.04 0.07-0.16l0.25-0.48q0.24-0.46 0.49-0.93z"/>
			</g>
			<g id="&lt;Group&gt;" style="opacity: .33">
				<path id="&lt;Path&gt;" fill-rule="evenodd" class="s10" d="m215.67 146.38c0 0.52-0.42 0.95-0.95 0.95-0.52 0-0.94-0.43-0.94-0.95 0-0.52 0.42-0.95 0.94-0.95 0.53 0 0.95 0.43 0.95 0.95z"/>
				<path id="&lt;Path&gt;" fill-rule="evenodd" class="s10" d="m218.7 145.43c0 0.21-0.17 0.38-0.38 0.38-0.21 0-0.38-0.17-0.38-0.38 0-0.2 0.17-0.37 0.38-0.37 0.21 0 0.38 0.17 0.38 0.37z"/>
				<path id="&lt;Path&gt;" fill-rule="evenodd" class="s10" d="m219.84 150.36c0 0.83-0.68 1.51-1.52 1.51-0.83 0-1.51-0.68-1.51-1.51 0-0.84 0.68-1.52 1.51-1.52 0.84 0 1.52 0.68 1.52 1.52z"/>
				<path id="&lt;Path&gt;" fill-rule="evenodd" class="s10" d="m203.91 148.37c0 0.84-0.68 1.52-1.52 1.52-0.83 0-1.51-0.68-1.51-1.52 0-0.84 0.68-1.51 1.51-1.51 0.84 0 1.52 0.67 1.52 1.51z"/>
				<path id="&lt;Path&gt;" fill-rule="evenodd" class="s10" d="m202.04 144.3c0-0.21-0.17-0.38-0.38-0.38-0.21 0-0.38 0.17-0.38 0.38 0 0.21 0.17 0.38 0.38 0.38 0.21 0 0.38-0.17 0.38-0.38z"/>
			</g>
			<g id="&lt;Group&gt;">
				<g id="&lt;Group&gt;">
					<path id="&lt;Path&gt;" fill-rule="evenodd" class="s6" d="m245.95 104.48c1.76-0.2 3.46 0 4.92 0.4 1.46 0.44 2.69 1.05 3.62 1.72 0.47 0.31 0.85 0.67 1.18 0.96q0.5 0.45 0.79 0.83c0.4 0.49 0.59 0.77 0.59 0.77 0 0-0.34-0.03-0.95-0.09q-0.45-0.06-1.07-0.08c-0.41-0.02-0.86-0.08-1.36-0.06-0.99-0.04-2.12 0.01-3.32 0.08q-1.81 0.14-3.81 0.36-2 0.26-3.79 0.54c-1.18 0.22-2.3 0.44-3.25 0.71-0.49 0.11-0.91 0.26-1.31 0.38q-0.6 0.17-1.01 0.33c-0.59 0.2-0.91 0.31-0.91 0.31 0 0 0.12-0.32 0.39-0.88q0.2-0.44 0.57-0.99c0.26-0.37 0.54-0.81 0.93-1.22 0.74-0.86 1.79-1.75 3.11-2.52 1.33-0.74 2.93-1.33 4.68-1.55z"/>
				</g>
			</g>
			<g id="&lt;Group&gt;">
				<g id="&lt;Group&gt;">
					<path id="&lt;Path&gt;" fill-rule="evenodd" class="s6" d="m202.88 104.26c1.22 0.49 2.16 1.35 2.75 2.26 0.6 0.91 0.86 1.86 0.92 2.65 0.07 0.79-0.05 1.41-0.18 1.83-0.13 0.41-0.24 0.62-0.24 0.62q-0.01-0.01-0.5-0.42c-0.3-0.25-0.75-0.58-1.26-0.89-1.02-0.64-2.28-1.07-3.32-1.48-1.03-0.41-2.24-0.97-3.43-1.22-0.57-0.12-1.12-0.19-1.52-0.22q-0.63-0.03-0.65-0.03c0 0 0.06-0.24 0.25-0.63 0.2-0.39 0.54-0.92 1.14-1.45 0.59-0.53 1.43-1.03 2.49-1.28 1.05-0.25 2.33-0.22 3.55 0.26z"/>
				</g>
			</g>
			<path id="&lt;Path&gt;" class="s6" d="m175.34 224.81l3.43-0.97q-0.8-0.57-1.57-1.33c-9.52-9.53-0.68-42.17-21.08-52.37-20.41-10.2-33.33 12.92-25.85 16.32 7.48 3.4 12.24-0.68 12.24-0.68 0 0-0.68 10.88 10.21 6.8 1.8-0.67 2.4-0.81 4.15 0 1.71 0.79 2.54 2.71 3.12 4.49 1.91 5.85 2.35 12 3.63 17.98 0.66 3.03 1.48 6.03 2.56 8.93 0.84 2.24 3.9 5.99 4.06 8.18-0.33-4.45-0.83-11.18-0.97-12.44 0.38 1.43 6.07 5.09 6.07 5.09z"/>
			<g id="&lt;Group&gt;">
				<g id="&lt;Group&gt;">
					<path id="&lt;Path&gt;" fill-rule="evenodd" class="s10" d="m279.92 134.34c6.77-0.8 13.27-1.2 19.18-1.13 5.91 0.07 11.23 0.56 15.63 1.31 4.41 0.74 7.92 1.64 10.3 2.38 1.2 0.34 2.11 0.7 2.73 0.89q0.94 0.32 0.95 0.33-0.01-0.01-0.96-0.29c-0.63-0.18-1.54-0.5-2.76-0.8-2.4-0.67-5.92-1.47-10.32-2.1-4.4-0.65-9.7-1.04-15.58-1.02-5.88 0-12.33 0.45-19.07 1.25-13.48 1.67-25.57 4.12-34.38 5.51-4.4 0.72-7.97 1.25-10.45 1.57-2.47 0.31-3.84 0.48-3.84 0.48 0 0 1.36-0.22 3.82-0.61 2.46-0.4 6.02-1.02 10.4-1.85 8.77-1.59 20.81-4.24 34.35-5.92z"/>
				</g>
				<g id="&lt;Group&gt;">
					<path id="&lt;Path&gt;" fill-rule="evenodd" class="s10" d="m266.16 155.23c10.85 2.38 20.49 5.27 27.37 7.61 3.44 1.16 6.21 2.16 8.11 2.89 1.9 0.72 2.95 1.12 2.95 1.12 0 0-1.07-0.36-2.99-1-1.93-0.66-4.73-1.55-8.2-2.62-6.93-2.14-16.6-4.82-27.41-7.2-10.82-2.37-20.72-3.98-27.92-4.94-3.59-0.48-6.51-0.83-8.53-1.04-2.02-0.22-3.14-0.35-3.14-0.35 0 0 1.12 0.08 3.15 0.22 2.03 0.13 4.96 0.39 8.57 0.77 7.23 0.75 17.2 2.17 28.04 4.54z"/>
				</g>
				<g id="&lt;Group&gt;">
					<path id="&lt;Path&gt;" fill-rule="evenodd" class="s10" d="m279.68 149.99c6.15 0.74 11.96 1.8 17.18 3.03 2.59 0.7 5.07 1.29 7.34 2.06 1.13 0.37 2.24 0.69 3.28 1.06q1.56 0.58 2.98 1.12c1.92 0.67 3.58 1.46 5.05 2.1q1.11 0.48 2.05 0.91 0.92 0.47 1.68 0.86c2.01 1.04 3.13 1.61 3.13 1.61 0 0-1.14-0.53-3.19-1.49q-0.76-0.37-1.7-0.81-0.95-0.4-2.07-0.85c-1.49-0.59-3.16-1.33-5.09-1.95q-1.43-0.5-2.99-1.04c-1.05-0.34-2.16-0.64-3.3-0.98-2.26-0.72-4.74-1.27-7.33-1.92-5.21-1.15-11-2.16-17.12-2.9-12.24-1.42-23.43-1.72-31.52-1.91-8.09-0.14-13.1-0.23-13.1-0.23 0 0 5.01-0.14 13.11-0.18 8.09-0.01 19.31 0.08 31.61 1.51z"/>
				</g>
				<g id="&lt;Group&gt;">
					<path id="&lt;Path&gt;" fill-rule="evenodd" class="s10" d="m159.59 136.35c-4.61-0.52-9.02-0.84-13.04-1.03-4.02-0.16-7.65-0.21-10.69-0.16-1.52 0-2.9 0.07-4.11 0.11q-1.82 0.05-3.1 0.14c-1.71 0.09-2.65 0.14-2.65 0.14 0 0 0.94-0.1 2.64-0.27q1.28-0.15 3.1-0.27c1.2-0.08 2.58-0.21 4.11-0.26 3.05-0.16 6.68-0.21 10.72-0.12 4.04 0.11 8.48 0.39 13.11 0.91 4.64 0.54 9.02 1.28 12.98 2.08 3.95 0.83 7.48 1.71 10.42 2.56 1.47 0.39 2.78 0.82 3.94 1.18q1.75 0.53 2.96 0.96c1.61 0.55 2.51 0.86 2.51 0.86 0 0-0.91-0.26-2.55-0.74q-1.23-0.37-2.99-0.84c-1.17-0.3-2.49-0.68-3.98-1.03-2.95-0.74-6.49-1.52-10.45-2.27-3.95-0.72-8.32-1.41-12.93-1.95z"/>
				</g>
				<g id="&lt;Group&gt;">
					<path id="&lt;Path&gt;" fill-rule="evenodd" class="s10" d="m152.75 149.09c-5.3 1.03-10.3 2.23-14.81 3.46-2.25 0.64-4.4 1.23-6.37 1.89-2 0.6-3.83 1.23-5.5 1.82-1.68 0.55-3.17 1.15-4.49 1.63q-1.99 0.73-3.37 1.31c-1.84 0.74-2.86 1.16-2.86 1.16 0 0 1-0.46 2.81-1.28q1.36-0.63 3.32-1.43c1.3-0.53 2.78-1.17 4.45-1.78 1.66-0.63 3.48-1.32 5.46-1.97 1.97-0.7 4.11-1.33 6.36-2.02 4.51-1.31 9.52-2.57 14.85-3.59 5.33-1 10.46-1.68 15.13-2.12 2.35-0.19 4.57-0.38 6.66-0.45 2.08-0.12 4.03-0.16 5.8-0.18 1.78-0.05 3.38 0.01 4.79 0.02q2.12 0.03 3.62 0.12c1.98 0.09 3.07 0.15 3.07 0.15 0 0-1.09-0.01-3.08-0.03q-1.49-0.03-3.61 0.02c-1.41 0.03-3.01 0.03-4.78 0.13-1.77 0.07-3.7 0.16-5.78 0.33-2.08 0.12-4.29 0.36-6.62 0.58-4.65 0.52-9.74 1.24-15.05 2.23z"/>
				</g>
				<g id="&lt;Group&gt;">
					<path id="&lt;Path&gt;" fill-rule="evenodd" class="s10" d="m178.88 152.69c-4.67 0.99-8.87 2.02-11.9 2.83-3.02 0.84-4.89 1.36-4.89 1.36 0 0 1.8-0.74 4.78-1.75 2.97-1.01 7.14-2.25 11.84-3.25 4.7-0.99 9.02-1.54 12.15-1.82 3.13-0.29 5.08-0.34 5.08-0.34 0 0-1.93 0.28-5.03 0.74-3.1 0.49-7.36 1.24-12.03 2.23z"/>
				</g>
			</g>
			<g id="&lt;Group&gt;">
				<g id="&lt;Group&gt;">
					<path id="&lt;Path&gt;" fill-rule="evenodd" class="s0" d="m246.7 256.5c0.55 0.98 1.09 1.96 1.73 2.88 0.58 0.94 1.25 1.82 1.92 2.69 0.63 0.89 1.4 1.66 2.09 2.49q0.27 0.31 0.56 0.58l0.23 0.23v0.01c0 0 0.03 0.04 0.03 0.03 0-0.03 0-0.01 0.02-0.08l0.08-0.43 0.09-0.32 0.11-0.36c0.16-0.47 0.36-0.88 0.55-1.33 0.03-0.04 0.04-0.14 0.08-0.14l0.15 0.09 0.3 0.19q0.28 0.17 0.59 0.4l0.95 0.71c0.44 0.3 0.82 0.67 1.23 1.01 1.58 1.39 3.02 2.89 4.21 4.53 2.43 3.24 4.09 6.8 5.04 10.33 0.27 0.88 0.41 1.78 0.6 2.64 0.12 0.89 0.29 1.75 0.33 2.61q0.05 0.64 0.09 1.28 0.01 0.63 0.01 1.26 0.02 0.62-0.03 1.24-0.06 0.94-0.12 1.87l-0.01 0.23c-0.03 0.03-0.13-0.06-0.19-0.08l-0.4-0.24-0.79-0.47-0.64-0.34-0.51-0.24q-1.01-0.45-2.04-0.73c-1.36-0.39-2.73-0.53-4.03-0.51-2.61 0.03-4.91 0.81-6.69 1.86-1.79 1.05-3.09 2.31-4 3.45-0.91 1.14-1.45 2.15-1.77 2.84q-0.24 0.52-0.35 0.8-0.11 0.27-0.11 0.28 0-0.01 0.1-0.28 0.09-0.29 0.31-0.82c0.29-0.71 0.79-1.75 1.66-2.94 0.87-1.2 2.14-2.54 3.94-3.69 1.78-1.15 4.15-2.06 6.88-2.19 1.37-0.06 2.81 0.05 4.27 0.41q1.1 0.26 2.19 0.71l0.54 0.23 0.39 0.2q0.11 0.05 0.22 0.11l0.1 0.06q0.03 0.02 0.05 0.02v-0.07l0.01-0.51q0.03-0.59 0-1.19-0.02-0.61-0.04-1.22-0.06-0.61-0.12-1.23c-0.06-0.83-0.25-1.65-0.38-2.49-0.21-0.83-0.35-1.69-0.63-2.53-0.99-3.37-2.66-6.75-5.02-9.8-1.16-1.53-2.54-2.95-4.06-4.24-0.39-0.31-0.75-0.66-1.17-0.94l-0.28-0.21-0.02-0.01q-0.02-0.01-0.03-0.01l-0.01 0.04-0.02 0.08-0.07 0.34q-0.12 0.68-0.03 1.68l0.2 2.09q-1.1-1.09-2.22-2.19l-0.93-0.91q-0.3-0.29-0.58-0.61c-0.72-0.85-1.53-1.65-2.19-2.58-0.7-0.9-1.4-1.81-2.01-2.79-0.66-0.95-1.23-1.97-1.8-2.99-3.59-6.57-5.28-13.8-5.31-20.59-0.02-1.7 0.11-3.37 0.28-5q0.18-1.22 0.36-2.42 0.07-0.28 0.13-0.55c0-0.03 0.05-0.14 0.02-0.1l-0.08 0.06-0.16 0.14-0.09 0.08-0.28 0.26-0.83 0.77q-2.14 2.01-4.19 3.94 0.04-1.57 0.09-3.11l0.01-0.37 0.01-0.23 0.04-0.46q0.03-0.46 0.06-0.91 0.14-1.81 0.39-3.52 0.48-3.42 1.26-6.39c1-3.96 2.31-7.27 3.51-9.93 1.22-2.65 2.36-4.63 3.16-5.96 0.83-1.31 1.28-2.01 1.28-2.01 0 0-0.41 0.72-1.18 2.07-0.74 1.36-1.79 3.38-2.9 6.06-1.09 2.68-2.27 6.01-3.12 9.95q-0.68 2.96-1.06 6.33-0.19 1.69-0.29 3.47-0.03 0.82-0.07 1.66 0.01 0.3 0.01 0.61 0.27-0.28 0.55-0.56 0.78-0.76 1.58-1.55 1.03-0.99 2.08-2.01 0.75-0.72 1.5-1.45l0.76-0.74 0.1-0.09c0.02-0.02 0.08-0.1 0.06-0.02l-0.06 0.24-0.1 0.5q-0.41 2.01-0.83 4.06-0.15 1.16-0.3 2.34c-0.14 1.58-0.24 3.19-0.2 4.83 0.11 6.54 1.8 13.49 5.25 19.81z"/>
				</g>
			</g>
			<g id="&lt;Group&gt;">
				<g id="&lt;Group&gt;">
					<path id="&lt;Path&gt;" fill-rule="evenodd" class="s0" d="m272.88 262.87q-0.01 1.17-0.01 2.33l-0.01 0.58v0.01l-0.01 0.01h0.01 0.01 0.01l0.16-0.19 0.16-0.19q0.03-0.04 0.12-0.18l0.16-0.23c0.11-0.14 0.2-0.33 0.29-0.51l0.15-0.26 0.13-0.36c0.35-0.92 0.81-2.42 1.27-3.83q0.22 1.7 0.43 3.38 0.11 0.89 0.22 1.78 0.08 0.69 0.15 1.38 0.19 1.83 0.32 3.59 0.24 3.54 0.28 6.76c0.06 4.28-0.11 8.08-0.38 11.24-0.25 3.15-0.57 5.66-0.83 7.39-0.27 1.71-0.42 2.65-0.42 2.65 0 0 0.08-0.94 0.22-2.68 0.14-1.73 0.29-4.25 0.37-7.4 0.08-3.15 0.07-6.93-0.15-11.16q-0.16-3.19-0.5-6.68-0.17-1.74-0.4-3.55l-0.05-0.4v-0.04l-0.02-0.05c-0.01-0.03-0.02-0.06-0.03 0l-0.02 0.06-0.01 0.02q0.02-0.02-0.04 0.06l-0.19 0.24-0.21 0.24-0.38 0.39q-0.4 0.38-0.8 0.68c-0.28 0.21-0.53 0.36-0.81 0.55l-0.41 0.28-0.21 0.14q-0.06 0.04-0.11 0.07l-0.01-0.12-0.08-0.92c-0.02-0.16-0.04-0.29-0.04-0.47v-0.57q0.01-0.86 0.02-1.72 0-1.15 0.01-2.32c0.01-12.24-0.78-23.31-1.61-31.3-0.41-4-0.83-7.23-1.12-9.46-0.31-2.23-0.48-3.46-0.48-3.46 0 0 0.26 1.22 0.73 3.42 0.45 2.21 1.07 5.41 1.68 9.39 1.25 7.96 2.45 19.08 2.44 31.41z"/>
				</g>
			</g>
			<g id="&lt;Group&gt;">
				<path id="&lt;Path&gt;" class="s0" d="m218.65 152.56c0.04 0.02-0.04 0.29-0.33 0.67-0.29 0.38-0.82 0.84-1.59 1.16-0.77 0.31-1.76 0.47-2.82 0.29-1.05-0.18-2.08-0.73-2.92-1.47-0.85-0.74-1.5-1.65-1.98-2.58-0.48-0.91-0.78-1.83-0.98-2.61-0.21-0.79-0.32-1.44-0.41-1.9-0.07-0.46-0.11-0.72-0.11-0.72 0 0-0.03-0.27-0.15-1.34l1.54 0.13c-0.2 0.65-0.61 1.9-1.24 3.35-0.31 0.73-0.68 1.51-1.08 2.29-0.42 0.78-0.92 1.63-1.68 2.27-0.76 0.63-1.76 0.98-2.7 0.79-0.92-0.19-1.52-0.85-1.86-1.37-0.67-1.1-0.82-1.89-0.75-1.92 0.1-0.05 0.44 0.69 1.19 1.59 0.38 0.43 0.9 0.85 1.56 0.91 0.62 0.07 1.35-0.24 1.88-0.76 0.54-0.53 0.93-1.27 1.27-2.04q0.51-1.18 0.9-2.26c0.52-1.43 0.84-2.65 1-3.28l0.98-3.96 0.55 4.08c0.14 1.04 0.18 1.31 0.18 1.31 0 0 0.03 0.26 0.08 0.7 0.06 0.43 0.13 1.06 0.29 1.78 0.28 1.45 0.93 3.35 2.29 4.72 0.67 0.67 1.5 1.19 2.35 1.41 0.85 0.23 1.72 0.18 2.41 0 1.44-0.39 2.03-1.33 2.13-1.24z"/>
			</g>
			<path id="&lt;Path&gt;" fill-rule="evenodd" class="s7" d="m291.12 138.2l-4.5 1.52c1.73 1.52 3.43 2.83 4.76 3.5h-8.93c0 0 8.17 6.12 7.66 8.41-0.51 2.3-37.75 20.41-56.88 18.11l3.32 2.3c0 0-24.74-0.26-31.37-3.83-5.47-2.94-16.81-8.65-20.64-10.57q0.01 0 0.01 0 1.52 1.01 2.98 1.96 0.05 0.04 0.1 0.07 1.42 0.92 2.72 1.76 0.11 0.07 0.22 0.14 0.54 0.35 1.04 0.67 0.1 0.06 0.2 0.13 0.58 0.37 1.12 0.7 0.08 0.05 0.16 0.1 0.44 0.28 0.84 0.53 0.13 0.07 0.25 0.15 0.47 0.29 0.88 0.53 0.96 0.58 1.91 1.11 0.16 0.09 0.32 0.18 0.94 0.53 1.86 1.01 0.09 0.05 0.18 0.09 1.99 1.04 3.8 1.87 0.03 0.01 0.06 0.03 0.43 0.19 0.85 0.37 0.02 0.01 0.04 0.02 0.05 0.02 0.11 0.05 0.39 0.17 0.77 0.33 0.04 0.02 0.08 0.03 0.04 0.02 0.08 0.03 0.38 0.16 0.74 0.31 0 0 0.01 0 0.02 0.01 0.04 0.02 0.74 0.29 1.4 0.52 0.07 0.02 0.14 0.05 0.21 0.07 0.42 0.14 0.18 0.06 0.36 0.12 0.17 0.05 0.34 0.1 0.19 0.06 0.36 0.11 0.15 0.04 0.29 0.07 0.07 0.02 0.13 0.03 0.11 0.03 0.22 0.05 0.12 0.03 0.23 0.05 0.18 0.04 0.33 0.06 0.09 0.02 0.16 0.03 0.23 0.02 0.41 0.03 0.1 0 0.13 0.08 0 0.02 0.01 0.04 0 0.01 0 0.02 0.01 0.05 0 0.12 0 0.04-0.01 0.09 0 0.02-0.01 0.05-0.02 0.07-0.04 0.14-0.02 0.07-0.05 0.14-0.01 0.04-0.03 0.07-0.01 0.03-0.02 0.06c0.06 0.01 10.83 2.85 14.13 4.12 3.32 1.27 0-1.02 0-1.02 0-1.02 10.46 0.25 16.84-0.77 6.37-1.02 18.1-1.78 18.1-1.78 0 0-9.43 6.37-11.98 12.75 0 0 6.12-4.85 8.16-5.87 2.04-1.02 5.36-2.04 5.36-2.04 0 0 3.18 2.08 7.63 8.12 4.23-2.78 7.9-4.83 10.28-6.07q-0.95-1.26-1.88-2.6-0.32-0.47-0.64-0.94-0.49-0.74-0.98-1.51-0.49-0.76-0.96-1.55-0.26-0.41-0.51-0.84-0.66-1.12-1.3-2.3-0.16-0.29-0.31-0.59-0.71-1.31-1.39-2.68c0 0 0.28-0.11 0.74-0.3q0.01 0 0.01 0 0.02-0.01 0.05-0.02 0.16-0.07 0.36-0.15 0.15-0.06 0.32-0.13 0.17-0.07 0.34-0.14 0.24-0.1 0.49-0.2 0.14-0.06 0.29-0.13 1.16-0.49 2.65-1.16 0.1-0.05 0.2-0.1 0.87-0.39 1.8-0.84 0.08-0.04 0.15-0.07 0.37-0.18 0.74-0.37 0.14-0.06 0.27-0.13 0.33-0.16 0.66-0.33 0.15-0.08 0.3-0.15 0.34-0.18 0.68-0.35 0.14-0.08 0.27-0.15 0.47-0.25 0.95-0.5 0.06-0.04 0.12-0.07 0.41-0.22 0.82-0.45 0.17-0.1 0.34-0.2 0.3-0.17 0.59-0.34 0.2-0.11 0.39-0.23 0.28-0.16 0.55-0.33 0.2-0.12 0.39-0.23 0.28-0.18 0.57-0.36 0.17-0.11 0.34-0.22 0.42-0.27 0.83-0.55 0.08-0.05 0.15-0.11 0.38-0.25 0.74-0.51 0.15-0.11 0.3-0.22 0.27-0.2 0.53-0.39 0.15-0.12 0.31-0.24 0.24-0.2 0.49-0.39 0.14-0.12 0.29-0.24 0.24-0.21 0.48-0.43 0.12-0.1 0.24-0.2 0.35-0.32 0.67-0.64l6.8-1.36-6.12-4.08 13.6-1.36z"/>
			<g id="&lt;Group&gt;">
				<g id="&lt;Group&gt;">
					<path id="&lt;Path&gt;" class="s0" d="m272.77 295.82c-0.03-0.02 0.19-0.31 0.67-0.78 0.47-0.47 1.22-1.11 2.26-1.76 2.05-1.31 5.5-2.66 9.63-2.26l-0.36 0.7c-2.23-2.32-3.94-5.6-4.79-9.09q-0.63-2.64-0.73-5.3c-0.06-1.74 0.04-3.46 0.22-5.07 0.4-3.22 1.13-6.01 1.73-8.09 0.61-2.08 1.08-3.46 1.21-3.84l1.25 0.89c-0.83 0.67-0.88 0.73-0.88 0.73 0 0-0.44 0.36-1.24 1.11-0.79 0.75-1.93 1.9-3.18 3.55l-1.47 1.93 0.12-2.41c0.14-3.07 0.53-7.16 1.33-11.52 0.77-4.36 1.99-8.96 3.4-13.08 1.4-4.13 3.03-7.76 4.31-10.34 0.66-1.28 1.21-2.31 1.62-3 0.41-0.7 0.65-1.08 0.69-1.06 0.09 0.05-0.72 1.65-1.86 4.27-1.14 2.63-2.62 6.29-3.88 10.42-1.28 4.12-2.37 8.69-3.03 13.01-0.69 4.31-0.99 8.34-1.08 11.36l-1.35-0.48c1.29-1.76 2.47-2.99 3.29-3.79 0.82-0.8 1.29-1.19 1.29-1.19 0 0 0.06-0.05 0.93-0.76l2.18-1.8-0.93 2.69c-0.13 0.37-0.62 1.72-1.26 3.75-0.62 2.02-1.39 4.73-1.83 7.83q-0.33 2.32-0.32 4.87c0.03 1.66 0.22 3.39 0.58 5.06 0.72 3.35 2.25 6.5 4.3 8.78l0.76 0.85-1.12-0.15c-3.88-0.5-7.24 0.66-9.31 1.81-2.1 1.16-3.08 2.24-3.15 2.16z"/>
				</g>
			</g>
			<g id="&lt;Group&gt;">
				<path id="&lt;Path&gt;" class="s0" d="m233.93 250.03c0.05-0.22 2.61 0.3 4.85 1.68 1.12 0.66 2.15 1.48 2.87 2.16 0.72 0.67 1.14 1.19 1.14 1.19 0 0 0.01 0.01 0.2 0.25l-0.3 1.22c0.01 0-0.12 0.02-0.33 0.18-0.2 0.16-0.46 0.52-0.47 0.95l-0.56-0.65c1.43 0.36 3.22 0.96 4.6 1.6 1.38 0.62 2.36 1.24 2.29 1.37-0.06 0.14-1.14-0.22-2.57-0.61-1.42-0.39-3.2-0.79-4.59-0.99l-0.52-0.08-0.04-0.57c-0.06-0.99 0.4-1.73 0.81-2.14 0.42-0.41 0.77-0.53 0.73-0.52l-0.31 1.22c-0.17-0.21-0.18-0.22-0.18-0.22 0 0-0.35-0.49-0.95-1.17-0.6-0.67-1.48-1.51-2.45-2.25-1.93-1.52-4.28-2.41-4.22-2.62z"/>
			</g>
			<g id="&lt;Group&gt;">
				<path id="&lt;Path&gt;" class="s10" d="m220.59 221.51c-0.11 0.03-0.93-1.92-1.96-4.87-1.04-2.95-2.27-6.9-3.29-10.81l1.04 0.18c-1.1 1.75-2.17 3.44-3.15 5l-0.86 1.36-0.37-1.59c-0.66-2.91-0.79-5.52-0.74-7.36 0.05-1.84 0.22-2.93 0.22-2.93 0 0 0.11-0.92 0.46-2.44 0.34-1.52 0.98-3.62 2.06-5.91l1.05 0.83c-1.86 1.42-4.3 2.81-6.92 3.71l-1.17 0.4 0.45-1.14c1.49-3.84 3.63-7.4 5.49-9.85 0.93-1.23 1.76-2.2 2.38-2.85 0.62-0.65 1-0.99 1.04-0.95 0.1 0.08-1.24 1.63-2.91 4.16-1.68 2.53-3.62 6.09-4.94 9.89l-0.73-0.73c2.47-0.95 4.74-2.33 6.46-3.73l2.2-1.79-1.14 2.62c-0.97 2.21-1.52 4.23-1.81 5.67-0.29 1.45-0.38 2.32-0.38 2.32 0 0-0.18 1.03-0.27 2.78-0.09 1.74-0.04 4.22 0.52 7.02l-1.22-0.23c1.03-1.52 2.15-3.18 3.32-4.89l0.75-1.11 0.29 1.29c0.87 3.91 1.93 7.89 2.78 10.89 0.84 2.99 1.46 5.02 1.35 5.06z"/>
			</g>
			<g id="&lt;Group&gt;">
				<path id="&lt;Path&gt;" class="s10" d="m362.27 188.34c-0.04 0.05-0.66-0.35-1.69-1.07-1.04-0.72-2.48-1.75-4.15-2.97q-1.26-0.92-2.67-1.95c-0.93-0.68-1.91-1.42-2.83-2.27-0.92-0.85-1.8-1.82-2.45-2.97-0.66-1.14-1-2.53-0.85-3.86l1.23 0.32c-0.69 1.8-1.29 3.39-1.84 4.83l-0.48 1.26-0.76-1.12c-1.41-2.08-2.42-3.92-3.04-5.26q-0.45-1.02-0.69-1.57-0.24-0.54-0.23-0.56c0 0-0.18-0.52-0.49-1.44-0.33-0.91-0.65-2.26-1.03-3.87-0.7-3.25-1.04-7.7-0.51-12.07 0.48-4.38 1.83-8.62 3.31-11.55 0.77-1.46 1.42-2.67 1.99-3.43 0.54-0.78 0.86-1.21 0.91-1.19 0.14 0.07-1.07 1.93-2.33 4.87-1.28 2.96-2.42 7.14-2.75 11.41-0.37 4.26 0.08 8.54 0.83 11.64 0.4 1.54 0.73 2.83 1.08 3.69 0.31 0.87 0.49 1.37 0.49 1.37q-0.01 0.01 0.21 0.54 0.22 0.53 0.63 1.51c0.55 1.3 1.49 3.08 2.78 5.1l-1.24 0.14c0.59-1.42 1.24-2.99 1.97-4.77l1.94-4.68-0.71 5c-0.15 1.03 0.06 2.13 0.6 3.14 0.53 1.02 1.29 1.95 2.14 2.78 0.84 0.84 1.75 1.59 2.66 2.31q1.35 1.1 2.57 2.08c1.6 1.3 2.98 2.43 3.94 3.24 0.96 0.82 1.5 1.32 1.46 1.37z"/>
			</g>
			<g id="&lt;Group&gt;">
				<path id="&lt;Path&gt;" class="s10" d="m405.81 133.29c-0.06 0.12-1.51-0.46-3.71-1.16-2.21-0.72-5.22-1.42-8.26-1.87-3.06-0.37-6.13-0.5-8.43-0.39-1.15 0-2.1 0.15-2.77 0.18-0.67 0.06-1.05 0.09-1.05 0.09 0 0-0.38 0.04-1.04 0.12-0.66 0.1-1.63 0.14-2.75 0.36-2.28 0.34-5.27 1.08-8.19 2.04-2.89 1.04-5.71 2.32-7.72 3.45-2.04 1.13-3.35 1.98-3.42 1.87-0.05-0.07 1.13-1.09 3.08-2.4 1.96-1.32 4.75-2.78 7.67-3.98 2.94-1.13 5.98-2 8.31-2.43 1.16-0.27 2.15-0.35 2.83-0.47 0.68-0.1 1.07-0.16 1.07-0.16 0 0 0.4-0.02 1.09-0.06 0.69-0.01 1.68-0.13 2.86-0.09 2.37-0.03 5.53 0.22 8.64 0.75 3.09 0.61 6.12 1.49 8.29 2.4 2.17 0.9 3.54 1.67 3.5 1.75z"/>
			</g>
			<g id="&lt;Group&gt;">
				<path id="&lt;Path&gt;" class="s10" d="m413.74 144.32c-0.1 0.03-0.25-0.63-0.94-1.41-0.67-0.79-1.91-1.58-3.47-2.15-3.15-1.08-7.24-2.08-10.31-2.69l0.67-1.15c2 2.16 3.4 3.67 3.57 3.85l1.79 1.94-2.59-0.63c-0.35-0.08-0.37-0.09-0.37-0.09 0 0-1.33-0.37-3.36-0.8-2.03-0.43-4.77-0.87-7.54-1.1-2.76-0.24-5.55-0.28-7.64-0.22-2.08 0.05-3.49 0.14-3.5 0.02-0.01-0.1 1.36-0.4 3.46-0.64 2.1-0.25 4.93-0.39 7.75-0.3 2.83 0.1 5.65 0.42 7.74 0.79 2.1 0.35 3.48 0.7 3.48 0.7 0 0 0.02 0 0.38 0.09l-0.8 1.31c-0.16-0.19-1.5-1.76-3.42-3.99l-1.43-1.67 2.11 0.52c3.11 0.76 7.14 1.94 10.33 3.3 1.59 0.71 2.88 1.69 3.5 2.65 0.63 0.95 0.64 1.67 0.59 1.67z"/>
			</g>
			<g id="&lt;Group&gt;" style="opacity: .29;mix-blend-mode: multiply">
				<path id="&lt;Path&gt;" class="s0" d="m225.36 87.99c-4.89 2.59-9.16 6.33-12.37 10.83 1.03 0.56 2.29 0.16 3.39-0.25q4.27-1.58 8.54-3.17c-2.28 3.2-3.99 6.8-5.02 10.58 1.27-0.06 2.11-1.27 2.89-2.28 2.41-3.12 6-5.3 9.88-5.99-1.42 2.45-2.36 5.17-2.76 7.98 0.73 0.19 1.34-0.56 1.74-1.2 2.54-4.05 5.92-7.56 9.88-10.24 1.96-1.34 4.08-2.48 5.78-4.14 0.53-0.51 1.02-1.33 0.58-1.9-0.24-0.31-0.66-0.4-1.04-0.47-3.72-0.64-7.49-0.94-11.27-0.88-4.96 0.09-10.63 1.26-13.02 5.6"/>
			</g>
			<g id="&lt;Group&gt;">
				<path id="&lt;Path&gt;" class="s6" d="m224.66 85.89c-4.88 2.59-9.16 6.33-12.37 10.84 1.03 0.55 2.29 0.15 3.39-0.26q4.27-1.58 8.54-3.16c-2.28 3.19-3.99 6.79-5.02 10.58 1.27-0.07 2.11-1.28 2.89-2.29 2.41-3.11 6.01-5.29 9.88-5.99-1.42 2.45-2.36 5.17-2.76 7.98 0.73 0.19 1.34-0.56 1.74-1.2 2.54-4.04 5.92-7.56 9.88-10.24 1.96-1.34 4.08-2.48 5.79-4.14 0.52-0.5 1.02-1.32 0.57-1.9-0.24-0.31-0.65-0.4-1.04-0.47-3.71-0.64-7.49-0.94-11.27-0.87-4.95 0.08-10.63 1.25-13.02 5.6"/>
			</g>
			<path id="&lt;Path&gt;" class="s7" d="m239.22 89.6c1.73-1.17 3.59-2.18 5.09-3.63q0.24-0.24 0.42-0.54-4.89-0.74-9.85-0.66c-4.64 0.07-9.91 1.11-12.53 4.81l2.31-3.69q-0.41 0.23-0.81 0.46-0.46 0.46-0.85 0.99l0.49-0.78c-3.31 1.92-6.31 4.37-8.85 7.23 0.8 0.18 1.7-0.1 2.5-0.39q3.75-1.4 7.5-2.79-1.1 1.58-1.99 3.28 0.79-0.29 1.57-0.58-2.18 3.06-3.63 6.54c0.92-0.24 1.58-1.16 2.18-1.95 2.12-2.74 5.27-4.65 8.68-5.26q-0.97 1.68-1.59 3.52 1.04-0.35 2.11-0.55-0.8 1.42-1.39 2.94c2.22-3.53 5.19-6.61 8.64-8.95z"/>
			<g id="&lt;Group&gt;">
				<path id="&lt;Path&gt;" fill-rule="evenodd" class="s10" d="m252.98 295.88c-0.57-0.08-0.22-0.96 0.25-1.29 1.56-1.11 3.3-1.97 5.12-2.55"/>
				<path id="&lt;Path&gt;" fill-rule="evenodd" class="s10" d="m259.67 296.05q1.17-0.16 2.34-0.33"/>
				<g id="&lt;Group&gt;">
					<path id="&lt;Path&gt;" class="s10" d="m285.01 247.73c-0.21-0.03-0.09-1.84 0.22-3.63 0.3-1.78 0.78-3.54 0.78-3.54 0 0 0.64-1.7 1.44-3.33 0.8-1.63 1.75-3.16 1.95-3.07 0.2 0.1-0.39 1.8-0.9 3.49-0.51 1.7-0.97 3.4-0.97 3.4 0 0-0.63 1.65-1.2 3.33-0.58 1.68-1.1 3.39-1.32 3.35z"/>
				</g>
				<g id="&lt;Group&gt;">
					<path id="&lt;Path&gt;" class="s10" d="m289.3 246.68c-0.22 0.01-0.47-0.67-0.54-1.4-0.08-0.72 0.01-1.45 0.01-1.45 0 0 0.26-0.7 0.67-1.3 0.41-0.61 0.94-1.1 1.12-0.98 0.19 0.12 0.03 0.78-0.07 1.41-0.11 0.64-0.16 1.25-0.16 1.25 0 0-0.24 0.57-0.44 1.18-0.21 0.61-0.37 1.27-0.59 1.29z"/>
				</g>
				<g id="&lt;Group&gt;">
					<path id="&lt;Path&gt;" class="s10" d="m288.65 282.01q-0.08 0.01-0.37-0.56c-0.2-0.37-0.44-0.92-0.66-1.6-0.47-1.36-0.88-3.25-1.01-5.17-0.14-1.92-0.06-3.85 0.08-5.28 0.13-1.43 0.28-2.38 0.28-2.38 0 0 0.17-0.94 0.5-2.33 0.33-1.39 0.82-3.22 1.36-5.03 1.07-3.62 2.19-7.22 2.41-7.16 0.21 0.05-0.53 3.75-1.31 7.44-0.4 1.84-0.77 3.67-1.01 5.05-0.24 1.38-0.37 2.3-0.37 2.3 0 0-0.19 0.91-0.39 2.28-0.22 1.38-0.41 3.22-0.41 5.06-0.02 1.85 0.2 3.69 0.47 5.06 0.13 0.69 0.27 1.25 0.37 1.65q0.13 0.62 0.06 0.67z"/>
				</g>
				<g id="&lt;Group&gt;">
					<path id="&lt;Path&gt;" class="s10" d="m295.76 258.94c-0.21-0.06-0.22-0.74-0.11-1.4 0.1-0.67 0.32-1.31 0.32-1.31 0 0 0.37-0.56 0.83-1.04 0.46-0.5 1-0.9 1.18-0.77 0.18 0.13-0.02 0.75-0.2 1.34-0.19 0.6-0.37 1.18-0.37 1.18 0 0-0.35 0.5-0.7 1.01-0.36 0.51-0.73 1.05-0.95 0.99z"/>
				</g>
				<g id="&lt;Group&gt;">
					<path id="&lt;Path&gt;" class="s10" d="m246.3 239.55c-0.1 0.01-0.35-0.94-0.5-2.41-0.14-1.47-0.16-3.45 0.09-5.42 0.24-1.96 0.75-3.93 1.23-5.32 0.48-1.38 0.65-2.24 0.65-2.24 0 0 0.06-0.2 0.12-0.55 0.07-0.36 0.13-0.86 0.06-1.44l1.11 0.52c-0.97 0.53-2.2 1.4-3.3 2.55l-1.79 1.88 0.75-2.44c1.16-3.76 2.5-7.94 2.79-8.15l0.06 0.02c-0.11 0.21-0.13 0.21-0.14 0.2-0.01 0-0.01-0.02 0.08-0.23l0.03-0.05 0.04 0.08c0.14 0.33-0.8 4.61-1.68 8.44l-1.04-0.56c1.1-1.32 2.4-2.36 3.44-3.02l0.92-0.58 0.2 1.1c0.14 0.81 0.09 1.47 0.03 1.91q-0.1 0.67-0.12 0.68c0 0-0.06 0.26-0.2 0.69-0.13 0.43-0.35 1.02-0.62 1.69-0.54 1.34-1.12 3.12-1.49 5-0.39 1.87-0.55 3.78-0.59 5.22-0.05 1.44-0.01 2.42-0.13 2.43z"/>
				</g>
				<g id="&lt;Group&gt;">
					<path id="&lt;Path&gt;" class="s10" d="m252.88 245.32c-0.21 0.05-0.85-1.66-1.26-3.45-0.41-1.79-0.59-3.62-0.59-3.62 0 0-0.01-1.84 0.22-3.66 0.22-1.83 0.68-3.59 0.9-3.56 0.22 0.04 0.16 1.83 0.23 3.61 0.07 1.78 0.25 3.53 0.25 3.53 0 0 0 1.76 0.12 3.54 0.1 1.77 0.34 3.55 0.13 3.61z"/>
				</g>
				<g id="&lt;Group&gt;">
					<path id="&lt;Path&gt;" class="s10" d="m249.83 252.11c-0.18 0.13-1-0.62-1.69-1.5-0.7-0.88-1.24-1.87-1.24-1.87 0 0-0.39-1.06-0.59-2.16-0.21-1.11-0.23-2.22-0.02-2.26 0.22-0.04 0.63 0.96 1.1 1.91 0.46 0.95 0.97 1.85 0.97 1.85 0 0 0.34 0.98 0.75 1.95 0.41 0.97 0.89 1.94 0.72 2.08z"/>
				</g>
				<g id="&lt;Group&gt;">
					<path id="&lt;Path&gt;" class="s10" d="m195.41 237.51c0.05 0.09-0.28 0.43-0.87 0.82-0.58 0.4-1.46 0.79-2.37 1.07-0.93 0.25-1.89 0.39-2.61 0.41-0.73 0.02-1.22-0.01-1.22-0.01 0 0-0.48-0.08-1.18-0.27-0.7-0.19-1.6-0.54-2.44-1-0.83-0.49-1.59-1.06-2.08-1.6-0.48-0.52-0.71-0.91-0.64-0.99 0.08-0.09 0.47 0.17 1.05 0.52 0.56 0.34 1.34 0.73 2.15 1.04 0.81 0.29 1.64 0.5 2.28 0.58 0.63 0.1 1.05 0.12 1.05 0.12 0 0 0.42 0.07 1.05 0.13 0.64 0.06 1.49 0.05 2.36-0.04 0.85-0.12 1.7-0.31 2.33-0.52 0.64-0.2 1.07-0.36 1.14-0.26z"/>
				</g>
				<g id="&lt;Group&gt;">
					<path id="&lt;Path&gt;" class="s10" d="m196.47 234.86c0.14 0.17-0.51 0.88-1.35 1.37-0.83 0.51-1.79 0.76-1.79 0.76 0 0-1 0.08-1.95-0.12-0.96-0.18-1.8-0.64-1.73-0.85 0.07-0.21 0.96-0.17 1.79-0.28 0.84-0.1 1.62-0.34 1.62-0.34 0 0 0.81-0.04 1.63-0.22 0.83-0.17 1.65-0.5 1.78-0.32z"/>
				</g>
				<g id="&lt;Group&gt;">
					<path id="&lt;Path&gt;" class="s10" d="m203.88 232.37c0.14 0.17-0.28 0.78-0.77 1.33-0.49 0.56-1.05 1.04-1.05 1.04 0 0-0.65 0.34-1.34 0.59-0.7 0.25-1.42 0.42-1.53 0.22-0.1-0.19 0.42-0.7 0.93-1.19 0.53-0.48 1.04-0.95 1.04-0.95 0 0 0.63-0.3 1.26-0.61 0.65-0.3 1.31-0.6 1.46-0.43z"/>
				</g>
			</g>
			<path id="&lt;Path&gt;" class="s15" d="m334.06 258.04c0 17.98-11.86 32.56-26.5 32.56-14.64 0-26.5-14.58-26.5-32.56 0-17.99 11.86-32.56 26.5-32.56 14.64 0 26.5 14.57 26.5 32.56z"/>
			<path id="&lt;Path&gt;" class="s16" d="m272.66 229.03c0 13.7-8.12 24.81-18.13 24.81-10.01 0-18.13-11.11-18.13-24.81 0-13.71 8.12-24.82 18.13-24.82 10.01 0 18.13 11.11 18.13 24.82z"/>
			<path id="&lt;Path&gt;" class="s7" d="m272.85 265.8l-1.28-15.04-0.33 12.11c0 0-3.07-4.63-3.07-5.65 0-1.02-1.36 8.16-1.36 8.16l-0.6-0.7 0.87 4.69c0 0-12.07-10.12-11.41-9.14 0.65 0.98 12.07 8.48 15 19.57 2.94 11.1 1.63 14.36 1.63 14.36 0 0-7.83 0-11.09 0-3.26 0-6.2-0.33-6.2-0.33 0-1.97-6.54 0.73-5.75 2.72l26.25-0.98c0 0 0.14-30.87-2.66-29.77z"/>
			<g id="&lt;Group&gt;">
				<path id="&lt;Path&gt;" class="s10" d="m136.54 185.34c-0.1 0.2-1.6-0.58-2.42-2.06-0.42-0.72-0.69-1.53-0.78-2.17-0.06-0.29-0.08-0.63-0.08-0.78q-0.01-0.28-0.01-0.29c0 0 0.04-0.43 0.23-1.05 0.18-0.61 0.55-1.38 1.06-2.04 1.01-1.36 2.6-1.93 2.67-1.72 0.09 0.2-1.12 1.07-1.72 2.34-0.31 0.62-0.5 1.27-0.57 1.76-0.08 0.5-0.07 0.82-0.07 0.82 0.01-0.05 0 0.08-0.02 0.23-0.01 0.19-0.03 0.32-0.02 0.59 0 0.49 0.1 1.17 0.33 1.82 0.42 1.34 1.52 2.37 1.4 2.55z"/>
			</g>
			<g id="&lt;Group&gt;">
				<path id="&lt;Path&gt;" class="s10" d="m157.34 190.01c0.05 0.1-0.58 0.52-1.57 1.06-0.99 0.53-2.38 1.18-3.91 1.53-1.53 0.37-3.2 0.3-4.38-0.07-0.59-0.17-1.07-0.38-1.39-0.56-0.33-0.17-0.5-0.29-0.5-0.29q-0.02 0-0.46-0.36c-0.28-0.25-0.67-0.62-1.03-1.16q-0.13-0.22-0.27-0.46-0.1-0.21-0.2-0.43c-0.17-0.4-0.26-0.73-0.34-1.13-0.13-0.78-0.12-1.6 0-2.38 0.12-0.78 0.34-1.54 0.57-2.2 0.24-0.69 0.52-1.31 0.85-1.81 0.65-1.02 1.47-1.32 1.5-1.22 0.06 0.1-0.54 0.54-0.96 1.52-0.4 0.96-0.73 2.43-0.83 3.83-0.04 0.7 0.02 1.38 0.17 1.97 0.08 0.28 0.21 0.6 0.3 0.78q0.11 0.21 0.22 0.41 0.1 0.14 0.2 0.27c0.59 0.73 1.18 1.05 1.18 1.05 0 0 0.5 0.41 1.45 0.76 0.94 0.38 2.31 0.56 3.72 0.37 1.41-0.18 2.81-0.64 3.86-0.99 1.06-0.36 1.78-0.59 1.82-0.49z"/>
			</g>
			<g id="&lt;Group&gt;">
				<path id="&lt;Path&gt;" class="s17" d="m140.04 277.77c0 0-5.24 6.48-11.7 6.48-6.46 0-11.7-2.9-11.7-6.48 0-3.58 5.24-6.48 11.7-6.48 6.46 0 11.7 6.48 11.7 6.48z"/>
				<path id="&lt;Path&gt;" class="s18" d="m128.34 277.92c-5.05 0-9.33 0.87-10.97 2.08 1.64 2.48 5.92 4.25 10.97 4.25 3.91 0 7.37-2.38 9.5-4.25-2.13-0.92-5.59-2.08-9.5-2.08z"/>
				<path id="&lt;Path&gt;" class="s17" d="m145.59 252.23c-0.08 0.05-0.45-0.28-0.86-1.29-0.19-0.51-0.39-1.19-0.45-2.07-0.06-0.88 0-1.97 0.44-3.19l0.13-0.36 0.47-0.05c1.55-0.14 3.53-0.35 5.79-0.71q1.7-0.27 3.57-0.67c0.64-0.14 1.26-0.27 1.83-0.45 0.56-0.19 1.11-0.42 1.53-0.71q0.31-0.22 0.5-0.46c0.12-0.15 0.19-0.33 0.21-0.38l0.07-0.26 0.01-0.03c-0.01 0.03 0.03-0.11-0.02 0.07v-0.01-0.03q0.01-0.02 0.01-0.06 0-0.12-0.01-0.26-0.04-0.28-0.19-0.64c-0.18-0.49-0.57-1.02-0.95-1.54q-0.6-0.76-1.34-1.41c-1.98-1.74-4.65-2.82-7.35-3.46-2.68-0.65-5.48-0.87-8.14-1.18-2.65-0.29-5.16-0.68-7.3-1.28-1.06-0.29-2.03-0.66-2.87-0.99-0.44-0.2-0.89-0.4-1.22-0.57q-0.5-0.27-0.91-0.49c-1.16-0.67-1.74-1.14-1.74-1.14 0 0-0.22-0.16-0.6-0.5-0.39-0.34-0.93-0.85-1.57-1.55-1.26-1.43-2.89-3.65-3.73-6.98-0.79-3.14-0.51-7.31 1.67-10.86q0.41-0.66 0.9-1.29 0.27-0.32 0.56-0.65c0.19-0.22 0.33-0.34 0.49-0.51 0.82-0.8 1.65-1.4 2.55-1.95 1.79-1.08 3.68-1.78 5.49-2.39 1.83-0.63 3.57-1.15 5.13-1.87 1.57-0.71 3-1.59 4.07-2.68 0.53-0.53 1-1.19 1.29-1.73l0.26-0.57c0.04-0.09 0.11-0.31 0.16-0.46 0.13-0.33 0.18-0.68 0.26-1.02 0.23-1.37 0-2.76-0.39-4-0.82-2.51-2.18-4.45-3.09-5.79-0.92-1.33-1.49-2.11-1.36-2.23 0.11-0.11 0.9 0.43 2.11 1.61 1.17 1.18 2.85 2.97 4.09 5.74 0.6 1.39 1.06 3.07 0.92 4.93-0.06 0.46-0.09 0.94-0.23 1.4-0.07 0.25-0.09 0.43-0.2 0.74l-0.22 0.6c-0.42 1-0.94 1.79-1.59 2.58-2.62 3.09-6.63 4.6-10.02 5.94-1.72 0.69-3.34 1.41-4.68 2.33-0.66 0.45-1.29 0.99-1.75 1.48-0.14 0.16-0.34 0.36-0.43 0.49l-0.3 0.39q-0.31 0.45-0.58 0.93c-0.69 1.28-1.08 2.68-1.18 4.03-0.11 1.36 0.04 2.56 0.38 3.76 0.31 1.03 0.82 2.07 1.33 2.87 0.52 0.81 1.07 1.45 1.55 1.96 0.99 0.99 1.65 1.43 1.65 1.43 0 0 0.41 0.36 1.23 0.88q0.35 0.2 0.76 0.45 0.38 0.19 0.83 0.42c0.66 0.29 1.4 0.62 2.29 0.9 1.76 0.58 3.99 1.03 6.57 1.44 2.56 0.42 5.5 0.78 8.56 1.69 3.01 0.89 6.16 2.31 8.63 4.74q0.91 0.91 1.64 1.97c0.46 0.73 0.92 1.43 1.22 2.36q0.24 0.68 0.28 1.5 0.02 0.41-0.05 0.83-0.01 0.1-0.04 0.21l-0.02 0.1-0.03 0.14-0.02 0.03-0.08 0.26c-0.46 1.22-1.26 1.86-2.04 2.33-1.55 0.87-3.11 1.04-4.38 1.21q-1.99 0.25-3.76 0.35c-2.37 0.14-4.41 0.1-5.99-0.01l0.6-0.41c-0.88 1.98-0.69 3.62-0.55 4.58 0.16 0.98 0.32 1.41 0.2 1.47z"/>
				<g id="&lt;Group&gt;" style="mix-blend-mode: multiply">
					<path id="&lt;Path&gt;" class="s17" d="m159.47 245.04c0.78-0.47 1.58-1.11 2.04-2.33l0.05-0.17c-0.4 0.27-0.9 0.48-1.42 0.65-0.56 0.19-1.19 0.32-1.83 0.46q-1.87 0.4-3.57 0.67c-2.26 0.36-4.24 0.57-5.78 0.71l-0.48 0.04-0.13 0.37q-0.22 0.65-0.32 1.25 0.6 0 1.26-0.02 0.05-0.14 0.12-0.3 1.77 0.11 4.14 0.05 0.75-0.08 1.54-0.17c1.27-0.17 2.83-0.34 4.38-1.21z"/>
					<path id="&lt;Path&gt;" class="s17" d="m152.62 234.02c2.7 0.64 5.36 1.72 7.34 3.45q0.56 0.49 1.02 1.04-0.35-0.64-0.73-1.23-0.73-1.06-1.64-1.97c-2.47-2.43-5.62-3.85-8.63-4.74-3.06-0.91-6-1.27-8.56-1.69-2.58-0.41-4.81-0.86-6.57-1.44-0.89-0.28-1.63-0.61-2.29-0.9q-0.45-0.23-0.83-0.42-0.41-0.25-0.76-0.45c-0.82-0.52-1.23-0.88-1.23-0.88 0 0-0.66-0.44-1.65-1.43-0.48-0.51-1.03-1.15-1.55-1.96-0.51-0.8-1.02-1.84-1.33-2.87-0.34-1.2-0.49-2.4-0.38-3.76 0.1-1.35 0.49-2.75 1.18-4.03q0.27-0.48 0.58-0.93l0.3-0.39c0.09-0.13 0.29-0.33 0.43-0.49 0.46-0.49 1.09-1.03 1.75-1.48 1.34-0.92 2.96-1.64 4.68-2.33 3.39-1.34 7.4-2.85 10.02-5.94q0.61-0.73 1.07-1.55c-0.99 0.87-2.2 1.59-3.52 2.19-1.56 0.72-3.3 1.24-5.13 1.86-1.81 0.62-3.7 1.32-5.49 2.4-0.9 0.55-1.73 1.15-2.54 1.95-0.17 0.17-0.31 0.29-0.5 0.51q-0.29 0.32-0.56 0.65-0.49 0.63-0.9 1.29c-2.18 3.55-2.46 7.72-1.66 10.86 0.83 3.33 2.46 5.55 3.72 6.98 0.64 0.7 1.19 1.21 1.57 1.54 0.38 0.35 0.61 0.5 0.61 0.5 0 0 0.58 0.48 1.73 1.15q0.41 0.22 0.92 0.49c0.33 0.17 0.78 0.36 1.21 0.56 0.84 0.34 1.81 0.71 2.88 1 2.13 0.6 4.65 0.98 7.3 1.28 2.65 0.3 5.45 0.52 8.14 1.18z"/>
				</g>
				<g id="&lt;Group&gt;">
					<path id="&lt;Path&gt;" class="s19" d="m160.24 266.15c0 9.44-12.49 20.86-12.49 20.86 0 0-14.64-11.42-14.64-20.86 0-9.44 6.07-17.09 13.56-17.09 7.49 0 13.57 7.65 13.57 17.09z"/>
				</g>
				<path id="&lt;Path&gt;" class="s17" d="m141.05 266.22c1.3 5.98 8.06 9.58 8.06 9.58 0 0 4.67-6.08 3.37-12.05-1.29-5.98-4.9-10.27-8.06-9.58-3.15 0.68-4.66 6.08-3.37 12.05z"/>
				<path id="&lt;Path&gt;" class="s18" d="m152.48 263.75c-0.48-2.26-1.3-4.27-2.3-5.87q-0.77-0.2-1.53-0.05c-3.15 0.69-4.66 6.09-3.37 12.06 0.45 2.06 1.55 3.84 2.8 5.28 0.63 0.41 1.03 0.63 1.03 0.63 0 0 4.67-6.08 3.37-12.05z"/>
				<path id="&lt;Path&gt;" class="s5" d="m149.83 284.94c-0.56-0.26-1.25-0.42-2-0.42-0.91 0-1.72 0.23-2.33 0.59 1.35 1.2 2.25 1.9 2.25 1.9 0 0 0.84-0.77 2.08-2.07z"/>
				<g id="&lt;Group&gt;">
					<path id="&lt;Path&gt;" class="s18" d="m142.99 188.72q0.53 0.1 1.09 0.26 0.66 0.2 1.2 0.44-0.09-0.25-0.19-0.49-0.24-0.54-0.51-1.04-0.15-0.02-0.31-0.03c-0.57-0.03-1.12 0-1.59 0.07q0.16 0.38 0.31 0.79z"/>
					<path id="&lt;Path&gt;" class="s18" d="m123.58 207.76c0.96 1.37 2.07 2.62 2.42 3q0.01-0.01 0.01-0.02 0.27-0.48 0.58-0.93l0.3-0.39c-0.51-0.47-1.5-1.39-2.44-2.38q-0.17-0.17-0.33-0.35-0.05 0.04-0.09 0.09-0.29 0.33-0.56 0.65-0.03 0.05-0.06 0.09 0.08 0.12 0.17 0.24z"/>
					<path id="&lt;Path&gt;" class="s18" d="m157.44 234.28c-0.47 0.29-1.19 0.79-1.79 1.43q-0.42 0.47-0.74 0.95 0.37 0.24 0.72 0.5 0.37-0.3 0.77-0.59c1.03-0.71 2.18-1.1 2.18-1.1q0-0.01 0.12-0.06-0.05-0.06-0.09-0.1-0.56-0.55-1.17-1.03z"/>
					<path id="&lt;Path&gt;" class="s18" d="m154.4 244.94q-0.36-0.45-0.72-0.85-0.92 0.18-1.8 0.33c0.43 0.3 1.08 0.77 1.7 1.31q0.36 0.3 0.7 0.61 0.4-0.04 0.81-0.09 0.09-0.02 0.19-0.03c-0.24-0.4-0.54-0.85-0.88-1.28z"/>
					<path id="&lt;Path&gt;" class="s18" d="m130.69 226.85q0.85-0.23 1.62-0.44-0.31-0.15-0.58-0.29-0.41-0.24-0.75-0.44-0.24 0.03-0.5 0.05c-1.89 0.21-3.76 0.57-3.76 0.57 0 0-0.77 0.23-1.79 0.58q0.73 0.76 1.21 1.17c0.58-0.11 0.97-0.19 0.97-0.19 0 0 1.78-0.53 3.58-1.01z"/>
					<path id="&lt;Path&gt;" class="s18" d="m138.21 228.3q-0.89-0.19-1.7-0.39c-0.83 0.61-1.42 1.09-1.42 1.09 0 0-1.19 1.14-2.39 2.53q0.41 0.14 0.84 0.27 0.28 0.07 0.55 0.13c1.12-0.97 2.07-1.73 2.07-1.73 0 0 0.91-0.88 2.05-1.9z"/>
					<path id="&lt;Path&gt;" class="s18" d="m150.44 233.2c-0.3 0.42-0.55 0.86-0.73 1.25q0.4 0.11 0.8 0.23 0.37-0.36 0.79-0.74c0.88-0.8 1.83-1.47 1.83-1.47 0 0 0.21-0.21 0.54-0.51q-0.8-0.38-1.61-0.69c-0.17 0.17-0.98 0.98-1.62 1.93z"/>
					<path id="&lt;Path&gt;" class="s18" d="m127.77 223.01q-0.55-0.61-1.13-1.46c-0.49-0.02-0.8-0.03-0.8-0.03 0 0-2.08 0.12-4.18 0.36q0.26 0.61 0.54 1.15c1.91 0.05 3.67 0.1 3.67 0.1 0 0 0.8-0.05 1.9-0.12z"/>
					<path id="&lt;Path&gt;" class="s18" d="m120.72 213.87c1.92 1.42 3.97 2.65 3.97 2.65q0 0 0.15 0.08-0.08-0.87-0.01-1.81c-0.77-0.4-2.13-1.11-3.49-1.87q-0.2-0.12-0.41-0.23-0.14 0.58-0.23 1.16 0.01 0.01 0.02 0.02z"/>
					<path id="&lt;Path&gt;" class="s18" d="m160.82 243.89c-0.46-0.62-0.85-1.04-0.85-1.04 0 0-0.5-0.43-1.24-0.92-0.02 0.07-0.09 0.21-0.19 0.34q-0.19 0.24-0.5 0.46-0.15 0.09-0.32 0.17c0.68 0.6 1.14 1.11 1.14 1.11 0 0 0.39 0.33 0.9 0.84q0.57-0.37 1.06-0.96z"/>
					<path id="&lt;Path&gt;" class="s18" d="m142.13 229.7c0 0 0.21-0.25 0.57-0.62q-0.66-0.1-1.28-0.2-0.31-0.05-0.61-0.11c-0.42 0.49-1.61 1.92-2.54 3.56q-0.11 0.19-0.22 0.38 0.6 0.09 1.22 0.18c1.32-1.73 2.86-3.19 2.86-3.19z"/>
					<path id="&lt;Path&gt;" class="s18" d="m141.99 198.35c0.63 0.49 1.01 0.85 1.01 0.85q0.01 0 0.29 0.22 0.07 0.05 0.14 0.11 0.17-0.17 0.34-0.35 0.34-0.42 0.64-0.86-0.05-0.05-0.1-0.1-0.28-0.26-0.29-0.26c0 0-0.45-0.36-1.17-0.82q-0.26-0.17-0.57-0.35-0.24 0.31-0.52 0.59-0.23 0.22-0.48 0.43 0.39 0.28 0.71 0.54z"/>
					<path id="&lt;Path&gt;" class="s18" d="m136.92 201.67c0 0 0.76 0.56 1.65 1.37q0.61-0.31 1.2-0.65c-0.91-1.13-1.82-1.95-1.82-1.95 0 0-0.17-0.13-0.43-0.31q-0.79 0.35-1.63 0.66c0.62 0.5 1.03 0.88 1.03 0.88z"/>
					<path id="&lt;Path&gt;" class="s18" d="m129.95 206.9q0.67-0.39 1.39-0.73c-0.63-0.56-2.23-1.96-3.09-2.5q-0.21 0.12-0.42 0.24c0.36 0.72 1.47 2.17 2.12 2.99z"/>
				</g>
				<g id="&lt;Group&gt;">
					<path id="&lt;Path&gt;" class="s0" d="m148.34 278.79c0 1.05-0.85 1.9-1.89 1.9-1.05 0-1.9-0.85-1.9-1.9 0-1.04 0.85-1.89 1.9-1.89 1.04 0 1.89 0.85 1.89 1.89z"/>
				</g>
				<path id="&lt;Path&gt;" class="s10" d="m145.73 278.02c-0.46 0-0.86 0.19-1.15 0.5q-0.02 0.13-0.03 0.27c0 1.05 0.85 1.9 1.9 1.9q0.24-0.01 0.46-0.07c0.24-0.27 0.4-0.63 0.4-1.03 0-0.87-0.71-1.57-1.58-1.57z"/>
				<path id="&lt;Path&gt;" class="s13" d="m147.15 278.16c0 0.37-0.29 0.66-0.65 0.66-0.37 0-0.66-0.29-0.66-0.66 0-0.36 0.29-0.66 0.66-0.66 0.36 0 0.65 0.3 0.65 0.66z"/>
				<path id="&lt;Path&gt;" class="s17" d="m155.33 253c-1.4 3.23-2.3 8.01-2.3 13.35 0 4.87 0.74 9.28 1.93 12.47 2.77-3.82 5.28-8.44 5.28-12.67 0-5.29-1.91-10.02-4.91-13.15z"/>
				<g id="&lt;Group&gt;" style="opacity: .68;mix-blend-mode: multiply">
					<path id="&lt;Path&gt;" class="s19" d="m160.24 266.15c0-9.44-6.08-17.09-13.57-17.09-3.98 0-7.56 2.18-10.04 5.63 2.28-2 8.24-6.38 13.34-2.82 5.84 4.07 3.86 26.03-0.91 33.86 3.2-3.23 11.18-12.03 11.18-19.58z"/>
				</g>
			</g>
		</g>
		<g id="&lt;Group&gt;">
			<g id="&lt;Group&gt;" style="opacity: .12;mix-blend-mode: multiply">
				<g id="&lt;Group&gt;">
					<path id="&lt;Compound Path&gt;" class="s0" d="m108.71 360.28h-0.63v-25.34q0-0.1 0-0.19c0-0.13-0.06-0.19-0.06-0.31 0-0.19 0-0.26-0.06-0.38 0-0.06-0.06-0.19-0.06-0.25-0.07-0.19-0.07-0.25-0.13-0.38-0.06-0.06-0.13-0.19-0.13-0.25-0.12-0.19-0.18-0.25-0.25-0.31-0.06-0.07-0.12-0.19-0.18-0.25-0.07-0.07-0.13-0.13-0.25-0.25 0-0.07-0.13-0.13-0.19-0.13 0-0.06-0.07-0.06-0.07-0.06-0.12-0.07-0.18-0.13-0.31-0.19-0.06-0.06-0.19-0.13-0.31-0.25-0.07 0-0.19-0.06-0.25-0.06-0.13-0.07-0.32-0.07-0.38-0.13-0.13 0-0.19 0-0.31-0.06-0.07 0-0.26 0-0.38 0-0.06 0-0.06 0-0.13 0q-0.11 0-0.12 0c-0.13 0-0.32 0-0.44 0-0.06 0.06-0.19 0.06-0.25 0.06-0.19 0.06-0.32 0.06-0.38 0.13q-0.17 0-0.25 0.18c-0.19 0-0.25 0.07-0.38 0.13-0.06 0.06-0.18 0.12-0.25 0.19-0.06 0.06-0.12 0.12-0.31 0.19-0.06 0.12-0.12 0.18-0.19 0.25-0.06 0.06-0.06 0.12-0.12 0.12l-23.21 28.86c-1.19 1.5-1.01 3.64 0.56 4.83 0.63 0.56 1.38 0.75 2.13 0.75h0.07 0.06 19.63v4.77c0 1.94 1.51 3.45 3.45 3.45 1.95 0 3.45-1.51 3.45-3.45v-4.77h0.63c1.95 0 3.51-1.51 3.51-3.45 0-1.88-1.56-3.45-3.51-3.45zm-7.53 0h-12.48l12.48-15.49z"/>
					<path id="&lt;Compound Path&gt;" class="s0" d="m206.82 360.28h-0.63v-25.34q0-0.1 0-0.19c0-0.13-0.06-0.19-0.06-0.31 0-0.19 0-0.26-0.07-0.38 0-0.06-0.06-0.19-0.06-0.25-0.06-0.19-0.06-0.25-0.12-0.38-0.07-0.06-0.13-0.19-0.13-0.25-0.12-0.19-0.19-0.25-0.25-0.31-0.06-0.07-0.13-0.19-0.19-0.25-0.06-0.07-0.12-0.13-0.25-0.25 0-0.07-0.12-0.13-0.19-0.13 0-0.06-0.06-0.06-0.06-0.06-0.13-0.07-0.19-0.13-0.31-0.19-0.07-0.06-0.19-0.13-0.32-0.25-0.06 0-0.19-0.06-0.25-0.06-0.12-0.07-0.31-0.07-0.37-0.13-0.13 0-0.19 0-0.32-0.06-0.06 0-0.25 0-0.38 0-0.06 0-0.06 0-0.12 0q-0.11 0-0.13 0c-0.12 0-0.31 0-0.44 0-0.06 0.06-0.18 0.06-0.25 0.06-0.18 0.06-0.31 0.06-0.37 0.13q-0.17 0-0.25 0.18c-0.19 0-0.25 0.07-0.38 0.13-0.06 0.06-0.19 0.12-0.25 0.19-0.06 0.06-0.13 0.12-0.31 0.19-0.07 0.12-0.13 0.18-0.19 0.25-0.06 0.06-0.06 0.12-0.13 0.12l-23.21 28.86c-1.19 1.5-1 3.64 0.57 4.83 0.62 0.56 1.38 0.75 2.13 0.75h0.06 0.07 19.63v4.77c0 1.94 1.5 3.45 3.45 3.45 1.94 0 3.45-1.51 3.45-3.45v-4.77h0.63c1.94 0 3.51-1.51 3.51-3.45 0-1.88-1.57-3.45-3.51-3.45zm-7.53 0h-12.48l12.48-15.49z"/>
					<path id="&lt;Path&gt;" class="s0" d="m251.46 336.63c1.81 0 3.43-1.56 3.43-3.5 0-1.93-1.62-3.43-3.43-3.43h-20.21c-0.13 0-0.13 0-0.13 0h-0.06c-1.93 0-3.43 1.5-3.43 3.43v36.81c0 1.87 1.5 3.43 3.43 3.43l0.06-0.07c0 0 0 0.07 0.13 0.07h20.21c1.81 0 3.43-1.56 3.43-3.43 0-1.94-1.62-3.5-3.43-3.5h-16.91v-11.48h14.54c1.87 0 3.43-1.55 3.43-3.49 0-1.81-1.56-3.43-3.43-3.43h-14.54v-11.41z"/>
					<path id="&lt;Compound Path&gt;" class="s0" d="m292.56 366.07c-0.12-0.63-0.31-1.81-0.25-3.68 0-2.62-0.81-4.93-2.06-6.74-0.62-0.94-1.37-1.68-2.18-2.31 2.99-2.49 4.86-6.11 4.86-10.23 0-7.42-5.92-13.41-13.35-13.41h-11.1q-0.08 0-0.06 0c-1.93 0-3.43 1.5-3.43 3.43v36.81c0 1.87 1.5 3.43 3.43 3.43 1.93 0 3.49-1.56 3.49-3.43v-13.54h7.36c0.56 0.12 2.19 0.62 3.5 1.5 0.75 0.5 1.49 1.12 1.87 1.81 0.43 0.68 0.68 1.49 0.75 2.68 0 3.43 0.43 5.67 1.31 7.48 0.49 0.88 1.18 1.69 1.99 2.19 0.87 0.56 1.81 0.68 2.43 0.68q0.08 0 0.07 0c0.62 0 1.12-0.12 1.37-0.18 1.81-0.63 2.81-2.56 2.18-4.37-0.37-1.06-1.18-1.81-2.18-2.12zm-12.98-16.59h-7.67v-12.85h7.67c3.56 0 6.43 2.87 6.43 6.48 0 3.5-2.87 6.37-6.43 6.37z"/>
					<path id="&lt;Compound Path&gt;" class="s0" d="m331.54 366.07c-0.12-0.63-0.31-1.81-0.25-3.68 0-2.62-0.81-4.93-2.06-6.74-0.62-0.94-1.37-1.68-2.18-2.31 2.99-2.49 4.87-6.11 4.87-10.23 0-7.42-5.93-13.41-13.35-13.41h-11.11q-0.07 0-0.06 0c-1.93 0-3.43 1.5-3.43 3.43v36.81c0 1.87 1.5 3.43 3.43 3.43 1.93 0 3.49-1.56 3.49-3.43v-13.54h7.36c0.57 0.12 2.19 0.62 3.5 1.5 0.75 0.5 1.49 1.12 1.87 1.81 0.44 0.68 0.69 1.49 0.75 2.68 0 3.43 0.43 5.67 1.31 7.48 0.5 0.88 1.18 1.69 1.99 2.19 0.88 0.56 1.81 0.68 2.44 0.68q0.07 0 0.06 0c0.62 0 1.12-0.12 1.37-0.18 1.81-0.63 2.81-2.56 2.18-4.37-0.37-1.06-1.18-1.81-2.18-2.12zm-12.97-16.59h-7.68v-12.85h7.68c3.55 0 6.42 2.87 6.42 6.48 0 3.5-2.87 6.37-6.42 6.37z"/>
					<path id="&lt;Compound Path&gt;" class="s0" d="m362.29 328.45c-5.99 0-11.48 2.56-15.28 6.68-3.87 4.12-6.18 9.6-6.18 15.78 0 6.18 2.31 11.73 6.18 15.78 3.8 4.06 9.29 6.68 15.28 6.68 5.74 0 11.23-2.62 14.91-6.68 3.86-4.05 6.3-9.6 6.3-15.78 0-6.18-2.44-11.66-6.3-15.78-3.68-4.12-9.17-6.68-14.91-6.68zm9.85 33.31c-2.62 2.81-6.11 4.5-9.85 4.5-3.99 0-7.49-1.69-10.11-4.5-2.62-2.68-4.24-6.61-4.24-10.85 0-4.24 1.62-8.17 4.24-10.92 2.62-2.8 6.12-4.42 10.11-4.42 3.74 0 7.23 1.62 9.85 4.42 2.56 2.75 4.25 6.68 4.25 10.92 0 4.24-1.69 8.17-4.25 10.85z"/>
					<path id="&lt;Compound Path&gt;" class="s0" d="m424.66 368.19c-0.37-1.06-1.18-1.81-2.18-2.12-0.13-0.63-0.31-1.81-0.25-3.68 0-2.62-0.81-4.93-2.06-6.74-0.62-0.94-1.37-1.68-2.18-2.31 2.99-2.49 4.86-6.11 4.86-10.23 0-7.42-5.92-13.41-13.35-13.41h-11.1q-0.08 0-0.06 0c-1.94 0-3.43 1.5-3.43 3.43v36.81c0 1.87 1.49 3.43 3.43 3.43 1.93 0 3.49-1.56 3.49-3.43v-13.54h7.36c0.56 0.12 2.18 0.62 3.49 1.5 0.75 0.5 1.5 1.12 1.88 1.81 0.43 0.68 0.68 1.49 0.74 2.68 0 3.43 0.44 5.67 1.31 7.48 0.5 0.88 1.19 1.69 2 2.19 0.87 0.56 1.81 0.68 2.43 0.68q0.08 0 0.06 0c0.63 0 1.13-0.12 1.38-0.18 1.81-0.63 2.8-2.56 2.18-4.37zm-15.16-18.71h-7.67v-12.85h7.67c3.56 0 6.43 2.87 6.43 6.48 0 3.5-2.87 6.37-6.43 6.37z"/>
					<path id="&lt;Compound Path&gt;" class="s0" d="m172.19 345.4c0-13.63-11.05-24.68-24.68-24.68-13.63 0-24.68 11.05-24.68 24.68 0 7.72 3.54 14.61 9.1 19.14l-7.5 10.04h47.63l-8.31-10.61c5.17-4.52 8.44-11.16 8.44-18.57zm-10.33 13.41l-9.89-9.89-1.35-1.73q0.42-0.73 0.47-1.62h16.07c-0.05 5.12-2.05 9.77-5.3 13.24zm-28.99-0.32c-3.08-3.44-4.97-7.95-5.02-12.92h16.07q0.04 0.8 0.4 1.48zm18.08-14.1q-0.25-0.85-0.85-1.48l11.36-11.36c3.3 3.33 5.4 7.84 5.65 12.84zm-1.8-2.19q-0.62-0.32-1.35-0.38v-16.07c4.92 0.07 9.39 1.95 12.8 5zm-2.53-0.29q-0.62 0.16-1.14 0.51l-11.38-11.38c3.31-3.09 7.69-5.04 12.52-5.26zm-1.98 1.32q-0.39 0.52-0.57 1.16h-16.17c0.24-4.85 2.23-9.23 5.37-12.53zm-2.53 7.67l-7.17 9.6q-0.66-0.55-1.28-1.16zm4.11-2.15q0.2 0.07 0.41 0.12v16.14c-3.72-0.17-7.18-1.35-10.09-3.31zm1.58 16.3v-16.08q0.75-0.06 1.38-0.39l9.92 12.68c-3.18 2.32-7.07 3.72-11.3 3.79zm10.17-8.48l3.07 3.07q-0.19 0.18-0.39 0.36zm10 16h-39.54l5.11-6.84c3.98 2.74 8.79 4.35 13.98 4.35 5.51 0 10.59-1.81 14.7-4.86z"/>
				</g>
			</g>
			<g id="&lt;Group&gt;" style="opacity: .12;mix-blend-mode: multiply">
				<g id="&lt;Group&gt;">
					<path id="&lt;Compound Path&gt;" class="s0" d="m108.71 360.28h-0.63v-25.34q0-0.1 0-0.19c0-0.13-0.06-0.19-0.06-0.31 0-0.19 0-0.26-0.06-0.38 0-0.06-0.06-0.19-0.06-0.25-0.07-0.19-0.07-0.25-0.13-0.38-0.06-0.06-0.13-0.19-0.13-0.25-0.12-0.19-0.18-0.25-0.25-0.31-0.06-0.07-0.12-0.19-0.18-0.25-0.07-0.07-0.13-0.13-0.25-0.25 0-0.07-0.13-0.13-0.19-0.13 0-0.06-0.07-0.06-0.07-0.06-0.12-0.07-0.18-0.13-0.31-0.19-0.06-0.06-0.19-0.13-0.31-0.25-0.07 0-0.19-0.06-0.25-0.06-0.13-0.07-0.32-0.07-0.38-0.13-0.13 0-0.19 0-0.31-0.06-0.07 0-0.26 0-0.38 0-0.06 0-0.06 0-0.13 0q-0.11 0-0.12 0c-0.13 0-0.32 0-0.44 0-0.06 0.06-0.19 0.06-0.25 0.06-0.19 0.06-0.32 0.06-0.38 0.13q-0.17 0-0.25 0.18c-0.19 0-0.25 0.07-0.38 0.13-0.06 0.06-0.18 0.12-0.25 0.19-0.06 0.06-0.12 0.12-0.31 0.19-0.06 0.12-0.12 0.18-0.19 0.25-0.06 0.06-0.06 0.12-0.12 0.12l-23.21 28.86c-1.19 1.5-1.01 3.64 0.56 4.83 0.63 0.56 1.38 0.75 2.13 0.75h0.07 0.06 19.63v4.77c0 1.94 1.51 3.45 3.45 3.45 1.95 0 3.45-1.51 3.45-3.45v-4.77h0.63c1.95 0 3.51-1.51 3.51-3.45 0-1.88-1.56-3.45-3.51-3.45zm-7.53 0h-12.48l12.48-15.49z"/>
					<path id="&lt;Compound Path&gt;" class="s0" d="m206.82 360.28h-0.63v-25.34q0-0.1 0-0.19c0-0.13-0.06-0.19-0.06-0.31 0-0.19 0-0.26-0.07-0.38 0-0.06-0.06-0.19-0.06-0.25-0.06-0.19-0.06-0.25-0.12-0.38-0.07-0.06-0.13-0.19-0.13-0.25-0.12-0.19-0.19-0.25-0.25-0.31-0.06-0.07-0.13-0.19-0.19-0.25-0.06-0.07-0.12-0.13-0.25-0.25 0-0.07-0.12-0.13-0.19-0.13 0-0.06-0.06-0.06-0.06-0.06-0.13-0.07-0.19-0.13-0.31-0.19-0.07-0.06-0.19-0.13-0.32-0.25-0.06 0-0.19-0.06-0.25-0.06-0.12-0.07-0.31-0.07-0.37-0.13-0.13 0-0.19 0-0.32-0.06-0.06 0-0.25 0-0.38 0-0.06 0-0.06 0-0.12 0q-0.11 0-0.13 0c-0.12 0-0.31 0-0.44 0-0.06 0.06-0.18 0.06-0.25 0.06-0.18 0.06-0.31 0.06-0.37 0.13q-0.17 0-0.25 0.18c-0.19 0-0.25 0.07-0.38 0.13-0.06 0.06-0.19 0.12-0.25 0.19-0.06 0.06-0.13 0.12-0.31 0.19-0.07 0.12-0.13 0.18-0.19 0.25-0.06 0.06-0.06 0.12-0.13 0.12l-23.21 28.86c-1.19 1.5-1 3.64 0.57 4.83 0.62 0.56 1.38 0.75 2.13 0.75h0.06 0.07 19.63v4.77c0 1.94 1.5 3.45 3.45 3.45 1.94 0 3.45-1.51 3.45-3.45v-4.77h0.63c1.94 0 3.51-1.51 3.51-3.45 0-1.88-1.57-3.45-3.51-3.45zm-7.53 0h-12.48l12.48-15.49z"/>
					<path id="&lt;Path&gt;" class="s0" d="m251.46 336.63c1.81 0 3.43-1.56 3.43-3.5 0-1.93-1.62-3.43-3.43-3.43h-20.21c-0.13 0-0.13 0-0.13 0h-0.06c-1.93 0-3.43 1.5-3.43 3.43v36.81c0 1.87 1.5 3.43 3.43 3.43l0.06-0.07c0 0 0 0.07 0.13 0.07h20.21c1.81 0 3.43-1.56 3.43-3.43 0-1.94-1.62-3.5-3.43-3.5h-16.91v-11.48h14.54c1.87 0 3.43-1.55 3.43-3.49 0-1.81-1.56-3.43-3.43-3.43h-14.54v-11.41z"/>
					<path id="&lt;Compound Path&gt;" class="s0" d="m292.56 366.07c-0.12-0.63-0.31-1.81-0.25-3.68 0-2.62-0.81-4.93-2.06-6.74-0.62-0.94-1.37-1.68-2.18-2.31 2.99-2.49 4.86-6.11 4.86-10.23 0-7.42-5.92-13.41-13.35-13.41h-11.1q-0.08 0-0.06 0c-1.93 0-3.43 1.5-3.43 3.43v36.81c0 1.87 1.5 3.43 3.43 3.43 1.93 0 3.49-1.56 3.49-3.43v-13.54h7.36c0.56 0.12 2.19 0.62 3.5 1.5 0.75 0.5 1.49 1.12 1.87 1.81 0.43 0.68 0.68 1.49 0.75 2.68 0 3.43 0.43 5.67 1.31 7.48 0.49 0.88 1.18 1.69 1.99 2.19 0.87 0.56 1.81 0.68 2.43 0.68q0.08 0 0.07 0c0.62 0 1.12-0.12 1.37-0.18 1.81-0.63 2.81-2.56 2.18-4.37-0.37-1.06-1.18-1.81-2.18-2.12zm-12.98-16.59h-7.67v-12.85h7.67c3.56 0 6.43 2.87 6.43 6.48 0 3.5-2.87 6.37-6.43 6.37z"/>
					<path id="&lt;Compound Path&gt;" class="s0" d="m331.54 366.07c-0.12-0.63-0.31-1.81-0.25-3.68 0-2.62-0.81-4.93-2.06-6.74-0.62-0.94-1.37-1.68-2.18-2.31 2.99-2.49 4.87-6.11 4.87-10.23 0-7.42-5.93-13.41-13.35-13.41h-11.11q-0.07 0-0.06 0c-1.93 0-3.43 1.5-3.43 3.43v36.81c0 1.87 1.5 3.43 3.43 3.43 1.93 0 3.49-1.56 3.49-3.43v-13.54h7.36c0.57 0.12 2.19 0.62 3.5 1.5 0.75 0.5 1.49 1.12 1.87 1.81 0.44 0.68 0.69 1.49 0.75 2.68 0 3.43 0.43 5.67 1.31 7.48 0.5 0.88 1.18 1.69 1.99 2.19 0.88 0.56 1.81 0.68 2.44 0.68q0.07 0 0.06 0c0.62 0 1.12-0.12 1.37-0.18 1.81-0.63 2.81-2.56 2.18-4.37-0.37-1.06-1.18-1.81-2.18-2.12zm-12.97-16.59h-7.68v-12.85h7.68c3.55 0 6.42 2.87 6.42 6.48 0 3.5-2.87 6.37-6.42 6.37z"/>
					<path id="&lt;Compound Path&gt;" class="s0" d="m362.29 328.45c-5.99 0-11.48 2.56-15.28 6.68-3.87 4.12-6.18 9.6-6.18 15.78 0 6.18 2.31 11.73 6.18 15.78 3.8 4.06 9.29 6.68 15.28 6.68 5.74 0 11.23-2.62 14.91-6.68 3.86-4.05 6.3-9.6 6.3-15.78 0-6.18-2.44-11.66-6.3-15.78-3.68-4.12-9.17-6.68-14.91-6.68zm9.85 33.31c-2.62 2.81-6.11 4.5-9.85 4.5-3.99 0-7.49-1.69-10.11-4.5-2.62-2.68-4.24-6.61-4.24-10.85 0-4.24 1.62-8.17 4.24-10.92 2.62-2.8 6.12-4.42 10.11-4.42 3.74 0 7.23 1.62 9.85 4.42 2.56 2.75 4.25 6.68 4.25 10.92 0 4.24-1.69 8.17-4.25 10.85z"/>
					<path id="&lt;Compound Path&gt;" class="s0" d="m424.66 368.19c-0.37-1.06-1.18-1.81-2.18-2.12-0.13-0.63-0.31-1.81-0.25-3.68 0-2.62-0.81-4.93-2.06-6.74-0.62-0.94-1.37-1.68-2.18-2.31 2.99-2.49 4.86-6.11 4.86-10.23 0-7.42-5.92-13.41-13.35-13.41h-11.1q-0.08 0-0.06 0c-1.94 0-3.43 1.5-3.43 3.43v36.81c0 1.87 1.49 3.43 3.43 3.43 1.93 0 3.49-1.56 3.49-3.43v-13.54h7.36c0.56 0.12 2.18 0.62 3.49 1.5 0.75 0.5 1.5 1.12 1.88 1.81 0.43 0.68 0.68 1.49 0.74 2.68 0 3.43 0.44 5.67 1.31 7.48 0.5 0.88 1.19 1.69 2 2.19 0.87 0.56 1.81 0.68 2.43 0.68q0.08 0 0.06 0c0.63 0 1.13-0.12 1.38-0.18 1.81-0.63 2.8-2.56 2.18-4.37zm-15.16-18.71h-7.67v-12.85h7.67c3.56 0 6.43 2.87 6.43 6.48 0 3.5-2.87 6.37-6.43 6.37z"/>
					<path id="&lt;Compound Path&gt;" class="s0" d="m172.19 345.4c0-13.63-11.05-24.68-24.68-24.68-13.63 0-24.68 11.05-24.68 24.68 0 7.72 3.54 14.61 9.1 19.14l-7.5 10.04h47.63l-8.31-10.61c5.17-4.52 8.44-11.16 8.44-18.57zm-10.33 13.41l-9.89-9.89-1.35-1.73q0.42-0.73 0.47-1.62h16.07c-0.05 5.12-2.05 9.77-5.3 13.24zm-28.99-0.32c-3.08-3.44-4.97-7.95-5.02-12.92h16.07q0.04 0.8 0.4 1.48zm18.08-14.1q-0.25-0.85-0.85-1.48l11.36-11.36c3.3 3.33 5.4 7.84 5.65 12.84zm-1.8-2.19q-0.62-0.32-1.35-0.38v-16.07c4.92 0.07 9.39 1.95 12.8 5zm-2.53-0.29q-0.62 0.16-1.14 0.51l-11.38-11.38c3.31-3.09 7.69-5.04 12.52-5.26zm-1.98 1.32q-0.39 0.52-0.57 1.16h-16.17c0.24-4.85 2.23-9.23 5.37-12.53zm-2.53 7.67l-7.17 9.6q-0.66-0.55-1.28-1.16zm4.11-2.15q0.2 0.07 0.41 0.12v16.14c-3.72-0.17-7.18-1.35-10.09-3.31zm1.58 16.3v-16.08q0.75-0.06 1.38-0.39l9.92 12.68c-3.18 2.32-7.07 3.72-11.3 3.79zm10.17-8.48l3.07 3.07q-0.19 0.18-0.39 0.36zm10 16h-39.54l5.11-6.84c3.98 2.74 8.79 4.35 13.98 4.35 5.51 0 10.59-1.81 14.7-4.86z"/>
				</g>
			</g>
			<g id="&lt;Group&gt;">
				<text id="4   4
" style="opacity: .8;mix-blend-mode: multiply;transform: matrix(1,0,0,1,140.798,372.398)" >
					<tspan x="-63.2" y="0" class="t20">4   4
</tspan>
				</text>
				<text id="ERROR
" style="opacity: .8;mix-blend-mode: multiply;transform: matrix(1,0,0,1,321.041,370.366)" >
					<tspan x="-105.5" y="0" class="t21">ERROR
</tspan>
				</text>
				<g id="&lt;Group&gt;">
					<g id="&lt;Group&gt;">
						<g id="&lt;Group&gt;">
							<path id="&lt;Compound Path&gt;" class="s19" d="m143.84 317.72c-13.63 0-24.68 11.05-24.68 24.68 0 13.63 11.05 24.68 24.68 24.68 13.63 0 24.68-11.05 24.68-24.68 0-13.63-11.05-24.68-24.68-24.68zm0 44.34c-10.86 0-19.66-8.8-19.66-19.66 0-10.86 8.8-19.66 19.66-19.66 10.86 0 19.66 8.8 19.66 19.66 0 10.86-8.8 19.66-19.66 19.66z"/>
						</g>
					</g>
					<g id="&lt;Group&gt;">
						<g id="&lt;Group&gt;">
							<path id="&lt;Compound Path&gt;" class="s19" d="m143.84 317.72c-13.63 0-24.68 11.05-24.68 24.68 0 13.63 11.05 24.68 24.68 24.68 13.63 0 24.68-11.05 24.68-24.68 0-13.63-11.05-24.68-24.68-24.68zm0 44.34c-10.86 0-19.66-8.8-19.66-19.66 0-10.86 8.8-19.66 19.66-19.66 10.86 0 19.66 8.8 19.66 19.66 0 10.86-8.8 19.66-19.66 19.66z"/>
						</g>
					</g>
					<g id="&lt;Group&gt;" style="opacity: .29;mix-blend-mode: multiply">
						<g id="&lt;Group&gt;">
							<path id="&lt;Compound Path&gt;" class="s0" d="m143.84 320.16c-12.29 0-22.25 9.96-22.25 22.24 0 12.29 9.96 22.25 22.25 22.25 12.29 0 22.25-9.96 22.25-22.25 0-12.28-9.96-22.24-22.25-22.24zm0 41.9c-10.86 0-19.66-8.8-19.66-19.66 0-10.86 8.8-19.66 19.66-19.66 10.86 0 19.66 8.8 19.66 19.66 0 10.86-8.8 19.66-19.66 19.66z"/>
						</g>
					</g>
					<path id="&lt;Path&gt;" class="s19" d="m147.44 342.4c0 1.99-1.61 3.61-3.6 3.61-1.99 0-3.6-1.62-3.6-3.61 0-1.99 1.61-3.6 3.6-3.6 1.99 0 3.6 1.61 3.6 3.6z"/>
					<path id="&lt;Path&gt;" class="s22" d="m144.03 342.09l-21.27 28.49h43.58z"/>
					<g id="&lt;Group&gt;">
						<g id="&lt;Group&gt;">
							<g id="&lt;Group&gt;">
								<path id="&lt;Path&gt;" class="s19" d="m144.12 365.49h-1.17v-45.01h1.17z"/>
							</g>
							<g id="&lt;Group&gt;">
								<path id="&lt;Path&gt;" class="s19" d="m166.04 341.4v1.17h-45.01v-1.17z"/>
							</g>
							<g id="&lt;Group&gt;">
								<path id="&lt;Path&gt;" class="s19" d="m159.04 325.66l0.83 0.83-31.83 31.82-0.83-0.82z"/>
							</g>
							<g id="&lt;Group&gt;">
								<path id="&lt;Path&gt;" class="s19" d="m127.21 326.49l0.83-0.83 31.83 31.83-0.83 0.82z"/>
							</g>
						</g>
					</g>
				</g>
			</g>
		</g>
	</g>
</svg>